<svg preserveAspectRatio="none" width="100%" height="100%" overflow="visible" style="display: block;" viewBox="0 0 21.9711 20" fill="none" xmlns="http://www.w3.org/2000/svg">
<g id="Group 4">
<path id="Vector" d="M7.97318 0L12.0053 0.00588744L12.0029 3.99053L19.9834 3.99281C19.979 4.65164 19.966 5.33044 19.9825 5.98762C20.6454 5.98569 21.3082 5.98844 21.971 5.9959C21.941 8.63831 21.9541 11.3482 21.9636 13.994C21.3961 13.958 20.5587 13.9791 19.9889 13.9949C19.9778 14.6653 19.9757 15.3358 19.9825 16.0063L12.0037 16.014C12.0027 17.3325 11.9907 18.6746 12.0076 19.9918C10.6889 19.9752 9.29144 19.9913 7.96908 20L7.96526 18.0011C7.3045 17.9967 6.64375 17.9963 5.983 17.9999C5.98239 17.4127 5.95513 16.5788 5.98415 16.0118C5.36007 16.0299 4.62253 16.01 3.99008 16.0099L3.99121 13.9841C3.32531 13.9772 2.65936 13.9785 1.99349 13.9879C1.99709 13.3159 1.99429 12.6438 1.98507 11.9719C1.50036 11.9688 0.466831 11.9447 0.00800565 11.9888L0 7.978L1.99192 7.98234C2.62483 7.97423 3.35181 8.00138 3.97113 7.96427C3.96136 7.30222 4.00032 6.6506 3.99644 5.99474C3.96233 5.39448 3.99064 4.60259 3.99567 3.98588C4.65337 3.99652 5.32375 3.98857 5.98363 3.99377C5.96814 3.34611 5.98211 2.64021 5.98288 1.98818C6.43745 2.03877 7.41653 1.98449 7.95626 2.00647L7.96289 1.99572C7.96388 1.38448 7.99723 0.5914 7.97318 0Z" fill="var(--fill-0, #DC7A04)"/>
<path id="Vector_2" d="M7.97325 0L12.0054 0.00588744L12.0029 3.99053L19.9835 3.99281C19.979 4.65164 19.9661 5.33044 19.9826 5.98762C20.6454 5.98569 21.3083 5.98844 21.9711 5.9959C21.941 8.63831 21.9542 11.3482 21.9636 13.994C21.3962 13.958 20.5588 13.9791 19.989 13.9949C19.9779 14.6653 19.9758 15.3358 19.9826 16.0063L12.0037 16.014C12.0028 17.3325 11.9907 18.6746 12.0077 19.9918C10.689 19.9752 9.29152 19.9913 7.96915 20L7.96533 18.0011C7.30458 17.9967 6.64382 17.9963 5.98307 17.9999C5.98246 17.4127 5.9552 16.5788 5.98422 16.0118C5.93877 15.4073 5.95729 14.6003 5.95756 13.9808C6.30409 13.9853 9.99271 13.9864 10.0171 13.9967C10.2332 14.0139 10.6444 13.9991 10.8709 13.9971C11.3448 13.9929 11.8187 13.9915 12.2926 13.9929C14.175 13.9935 16.1207 13.9648 17.9963 13.9838C18.2458 14.0203 19.6406 13.9721 19.9882 13.9715C19.9649 13.3553 19.9869 12.6279 19.9852 12.0012L19.9869 9.9944C19.9793 9.32641 19.9851 8.65047 19.9861 7.98171C19.9883 7.3201 19.9852 6.6585 19.9767 5.99694C19.3263 5.98278 18.6759 5.97796 18.0254 5.98242C17.1069 6.00723 16.0146 5.97815 15.0855 5.97815L9.99357 5.97194C9.97975 4.68828 9.93929 3.26385 9.99937 1.99043C9.87656 1.9955 9.73494 1.99456 9.61215 1.99027C9.06609 1.97118 8.50694 2.01332 7.96296 1.99572C7.96396 1.38448 7.9973 0.5914 7.97325 0Z" fill="var(--fill-0, #5D2D2B)"/>
<path id="Vector_3" d="M5.95756 13.9811C6.30409 13.9856 9.99271 13.9867 10.0171 13.997L9.97893 14.0325C9.95942 15.2605 9.96207 16.7836 9.99467 17.9988C9.31105 18.0102 8.6413 17.9888 7.9776 17.9971C7.93254 17.4184 7.95628 16.6119 7.95884 16.0149L5.98422 16.0121C5.93877 15.4077 5.95729 14.6006 5.95756 13.9811Z" fill="var(--fill-0, #B14E03)"/>
<path id="Vector_4" d="M7.96295 1.99621C8.50693 2.01381 9.06608 1.97167 9.61214 1.99076C9.73493 1.99505 9.87655 1.99599 9.99936 1.99092C9.93928 3.26434 9.97974 4.68877 9.99355 5.97242L15.0855 5.97864C16.0146 5.97864 17.1069 6.00772 18.0254 5.98291C18.6759 5.97845 19.3263 5.98326 19.9766 5.99743C19.9851 6.65898 19.9883 7.32059 19.9861 7.9822C19.9851 8.65096 19.9793 9.3269 19.9869 9.99489C19.3237 9.98265 18.6349 9.99054 17.9698 9.98969C17.9946 9.35265 17.9731 8.64348 17.9921 7.98234C17.5322 7.97989 17.0596 8.00946 16.5985 8.00547C13.0758 7.97502 9.50317 8.06143 5.98553 7.98041C6.03282 8.55005 5.98141 9.37414 6.00506 9.99164C5.32632 9.97877 4.66322 10.0023 3.97691 9.97841C3.9592 9.30731 3.9573 8.63591 3.97119 7.96476C3.96142 7.30271 4.00038 6.65109 3.9965 5.99523C3.96239 5.39497 3.9907 4.60307 3.99573 3.98636C4.65343 3.99701 5.32381 3.98906 5.98369 3.99426C5.9682 3.3466 5.98218 2.6407 5.98295 1.98867C6.43751 2.03926 7.41659 1.98498 7.95632 2.00696L7.96295 1.99621Z" fill="var(--fill-0, #F7B872)"/>
<path id="Vector_5" d="M5.98289 1.98812C6.43745 2.03871 7.41653 1.98443 7.95626 2.00641C7.99307 2.50876 7.95574 3.46416 7.94914 3.99564C7.9534 4.63675 7.91646 5.33979 7.94639 5.97102C7.28233 5.95694 6.61918 5.98046 5.96022 5.97017C5.96613 6.52465 5.91601 7.44745 5.98008 7.96338C5.31049 7.94924 4.64069 7.94952 3.97113 7.96421C3.96136 7.30216 4.00032 6.65054 3.99644 5.99468C3.96233 5.39442 3.99064 4.60253 3.99567 3.98582C4.65337 3.99646 5.32375 3.98851 5.98363 3.99371C5.96814 3.34605 5.98212 2.64015 5.98289 1.98812Z" fill="var(--fill-0, #DC7A04)"/>
<path id="Vector_6" d="M3.99573 3.986C4.65343 3.99665 5.32382 3.9887 5.98369 3.9939C5.98121 4.40117 5.92886 5.64716 5.97057 5.97352C5.31001 5.98821 4.65525 5.98114 3.9965 5.99487C3.96239 5.39461 3.9907 4.60271 3.99573 3.986Z" fill="var(--fill-0, #5D2D2B)"/>
<path id="Vector_7" d="M5.98291 1.98812C6.43747 2.03871 7.41656 1.98443 7.95629 2.00641C7.9931 2.50876 7.95577 3.46416 7.94916 3.99564C7.29402 3.9865 6.6388 3.98584 5.98365 3.99371C5.96817 3.34605 5.98214 2.64015 5.98291 1.98812Z" fill="var(--fill-0, #5D2D2B)"/>
<path id="Vector_8" d="M18.0254 5.98224C18.6758 5.97778 19.3263 5.98259 19.9766 5.99676C19.9851 6.65831 19.9883 7.31992 19.9861 7.98153C19.4594 7.94238 18.5388 7.94381 18.0101 7.97033C18.0141 7.38565 17.9877 6.54337 18.0254 5.98224Z" fill="var(--fill-0, #DC7A04)"/>
<path id="Vector_9" d="M3.05176e-05 7.97811L1.99195 7.98246C1.99319 8.66307 1.97396 9.2953 1.98901 9.98202C2.65092 9.98761 3.30732 9.97619 3.97028 9.98626L3.97647 11.9721C3.96888 12.4087 3.94783 13.585 3.99526 13.9758C4.65423 13.9994 5.30158 13.978 5.95752 13.9809C5.95725 14.6004 5.93873 15.4075 5.98418 16.0119C5.3601 16.03 4.62256 16.0101 3.99012 16.01L3.99124 13.9842C3.32534 13.9773 2.65939 13.9786 1.99352 13.988C1.99712 13.316 1.99432 12.6439 1.9851 11.972C1.50039 11.9689 0.466861 11.9448 0.00803617 11.9889L3.05176e-05 7.97811Z" fill="var(--fill-0, #5D2D2B)"/>
<path id="Vector_10" d="M1.98906 9.98219C2.65097 9.98778 3.30738 9.97636 3.97033 9.98643L3.97652 11.9723C3.31635 11.9789 2.65609 11.9776 1.99591 11.9683C1.94163 11.4463 1.96631 10.5152 1.98906 9.98219Z" fill="var(--fill-0, #B14E03)"/>
<path id="Vector_11" d="M18.0039 11.9727C18.4668 11.986 19.6289 11.9432 19.9852 12.0012C19.9868 12.628 19.9648 13.3553 19.9882 13.9716C19.6406 13.9722 18.2458 14.0204 17.9963 13.9838C17.9912 13.3181 18.0007 12.6394 18.0039 11.9727Z" fill="var(--fill-0, #B14E03)"/>
<path id="Vector_12" d="M3.97643 11.9722C4.6347 11.9921 5.29342 11.9938 5.95181 11.9774L5.95748 13.981C5.30154 13.9781 4.65418 13.9995 3.99522 13.9759C3.94779 13.5851 3.96883 12.4088 3.97643 11.9722Z" fill="var(--fill-0, #B14E03)"/>
<path id="Vector_13" d="M1.98296 5.98633C2.50066 6.03024 3.3935 5.96908 3.99645 5.99486C4.00033 6.65071 3.96137 7.30234 3.97114 7.96438C3.35182 8.0015 2.62484 7.97434 1.99193 7.98246C1.99823 7.31708 1.99523 6.65162 1.98296 5.98633Z" fill="var(--fill-0, #5D2D2B)"/>
</g>
</svg>
