<svg preserveAspectRatio="none" width="100%" height="100%" overflow="visible" style="display: block;" viewBox="0 0 18 13.7648" fill="none" xmlns="http://www.w3.org/2000/svg">
<g id="Check">
<path id="Union" d="M16.9412 3.17681H15.8823V4.23563H14.8235V5.29446H13.7647V6.35328H12.7059V7.41211H11.647V8.47093H10.5882V9.52975H9.5294V10.5886H8.47057V11.6474H6.35292V10.5886H5.2941V9.52975H4.23528V8.47093H3.17645V7.41211H2.11763V6.35328H1.05881V4.23563H3.17645V5.29446H4.23528V6.35328H5.2941V7.41211H6.35292V8.47093H8.47057V7.41211H9.5294V6.35328H10.5882V5.29446H11.647V4.23563H12.7059V3.17681H13.7647V2.11799H14.8235V1.05916H16.9412V3.17681Z" fill="var(--fill-0, #92CA1D)"/>
<g id="Union_2">
<path d="M8.47059 13.7647H6.35294V12.7059H8.47059V13.7647Z" fill="var(--fill-0, #28580D)"/>
<path d="M6.35294 12.7059H5.29412V11.6471H6.35294V12.7059Z" fill="var(--fill-0, #28580D)"/>
<path d="M9.52941 12.7059H8.47059V11.6471H9.52941V12.7059Z" fill="var(--fill-0, #28580D)"/>
<path d="M5.29412 11.6471H4.23529V10.5882H5.29412V11.6471Z" fill="var(--fill-0, #28580D)"/>
<path d="M10.5882 11.6471H9.52941V10.5882H10.5882V11.6471Z" fill="var(--fill-0, #28580D)"/>
<path d="M4.23529 10.5882H3.17647V9.52941H2.11765V8.47059H4.23529V10.5882Z" fill="var(--fill-0, #28580D)"/>
<path d="M11.6471 10.5882H10.5882V9.52941H11.6471V10.5882Z" fill="var(--fill-0, #28580D)"/>
<path d="M12.7059 9.52941H11.6471V8.47059H12.7059V9.52941Z" fill="var(--fill-0, #28580D)"/>
<path d="M2.11765 8.47059H1.05882V7.41177H2.11765V8.47059Z" fill="var(--fill-0, #28580D)"/>
<path d="M8.47059 8.47059H6.35294V7.41177H8.47059V8.47059Z" fill="var(--fill-0, #28580D)"/>
<path d="M13.7647 8.47059H12.7059V7.41177H13.7647V8.47059Z" fill="var(--fill-0, #28580D)"/>
<path d="M1.05882 7.41177H0V4.2353H1.05882V7.41177Z" fill="var(--fill-0, #28580D)"/>
<path d="M6.35294 7.41177H5.29412V6.35294H6.35294V7.41177Z" fill="var(--fill-0, #28580D)"/>
<path d="M9.52941 7.41177H8.47059V6.35294H9.52941V7.41177Z" fill="var(--fill-0, #28580D)"/>
<path d="M14.8235 7.41177H13.7647V6.35294H14.8235V7.41177Z" fill="var(--fill-0, #28580D)"/>
<path d="M5.29412 6.35294H4.23529V5.29412H5.29412V6.35294Z" fill="var(--fill-0, #28580D)"/>
<path d="M10.5882 6.35294H9.52941V5.29412H10.5882V6.35294Z" fill="var(--fill-0, #28580D)"/>
<path d="M15.8824 6.35294H14.8235V5.29412H15.8824V6.35294Z" fill="var(--fill-0, #28580D)"/>
<path d="M4.23529 5.29412H3.17647V4.2353H4.23529V5.29412Z" fill="var(--fill-0, #28580D)"/>
<path d="M11.6471 5.29412H10.5882V4.2353H11.6471V5.29412Z" fill="var(--fill-0, #28580D)"/>
<path d="M16.9412 5.29412H15.8824V4.2353H16.9412V5.29412Z" fill="var(--fill-0, #28580D)"/>
<path d="M3.17647 4.2353H1.05882V3.17647H3.17647V4.2353Z" fill="var(--fill-0, #28580D)"/>
<path d="M12.7059 4.2353H11.6471V3.17647H12.7059V4.2353Z" fill="var(--fill-0, #28580D)"/>
<path d="M18 4.2353H16.9412V1.05882H18V4.2353Z" fill="var(--fill-0, #28580D)"/>
<path d="M13.7647 3.17647H12.7059V2.11765H13.7647V3.17647Z" fill="var(--fill-0, #28580D)"/>
<path d="M14.8235 2.11765H13.7647V1.05882H14.8235V2.11765Z" fill="var(--fill-0, #28580D)"/>
<path d="M16.9412 1.05882H14.8235V0H16.9412V1.05882Z" fill="var(--fill-0, #28580D)"/>
</g>
<g id="Union_3">
<path d="M8.47057 12.7056H6.35292V11.6468H8.47057V12.7056Z" fill="var(--fill-0, #28580D)"/>
<path d="M6.35292 11.6468H5.2941V10.588H6.35292V11.6468Z" fill="var(--fill-0, #28580D)"/>
<path d="M9.5294 11.6468H8.47057V10.588H9.5294V11.6468Z" fill="var(--fill-0, #28580D)"/>
<path d="M5.2941 10.588H4.23528V9.52917H5.2941V10.588Z" fill="var(--fill-0, #28580D)"/>
<path d="M10.5882 10.588H9.5294V9.52917H10.5882V10.588Z" fill="var(--fill-0, #28580D)"/>
<path d="M4.23528 9.52917H3.17645V8.47035H4.23528V9.52917Z" fill="var(--fill-0, #28580D)"/>
<path d="M11.647 9.52917H10.5882V8.47035H11.647V9.52917Z" fill="var(--fill-0, #28580D)"/>
<path d="M3.17645 8.47035H2.11763V7.41152H3.17645V8.47035Z" fill="var(--fill-0, #28580D)"/>
<path d="M12.7059 8.47035H11.647V7.41152H12.7059V8.47035Z" fill="var(--fill-0, #28580D)"/>
<path d="M2.11763 7.41152H1.05881V6.3527H2.11763V7.41152Z" fill="var(--fill-0, #28580D)"/>
<path d="M13.7647 7.41152H12.7059V6.3527H13.7647V7.41152Z" fill="var(--fill-0, #28580D)"/>
<path d="M14.8235 6.3527H13.7647V5.29388H14.8235V6.3527Z" fill="var(--fill-0, #28580D)"/>
<path d="M15.8823 5.29388H14.8235V4.23505H15.8823V5.29388Z" fill="var(--fill-0, #28580D)"/>
<path d="M16.9412 4.23505H15.8823V3.17623H16.9412V4.23505Z" fill="var(--fill-0, #28580D)"/>
</g>
</g>
</svg>
