<svg preserveAspectRatio="none" width="100%" height="100%" overflow="visible" style="display: block;" viewBox="0 0 14.2857 14.2857" fill="none" xmlns="http://www.w3.org/2000/svg">
<g id="Close">
<g id="Union">
<path d="M2.38095 14.2857H0V11.9048H2.38095V14.2857Z" fill="var(--fill-0, #D43620)"/>
<path d="M14.2857 14.2857H11.9048V11.9048H14.2857V14.2857Z" fill="var(--fill-0, #D43620)"/>
<path d="M4.7619 11.9048H2.38095V9.52381H4.7619V11.9048Z" fill="var(--fill-0, #D43620)"/>
<path d="M11.9048 11.9048H9.52381V9.52381H11.9048V11.9048Z" fill="var(--fill-0, #D43620)"/>
<path d="M9.52381 9.52381H4.7619V4.7619H9.52381V9.52381Z" fill="var(--fill-0, #D43620)"/>
<path d="M4.7619 4.7619H2.38095V2.38095H4.7619V4.7619Z" fill="var(--fill-0, #D43620)"/>
<path d="M11.9048 4.7619H9.52381V2.38095H11.9048V4.7619Z" fill="var(--fill-0, #D43620)"/>
<path d="M2.38095 2.38095H0V0H2.38095V2.38095Z" fill="var(--fill-0, #D43620)"/>
<path d="M14.2857 2.38095H11.9048V0H14.2857V2.38095Z" fill="var(--fill-0, #D43620)"/>
</g>
<g id="Union_2">
<path d="M1.19048 1.19048H2.38095V0H0V2.38095H1.19048V1.19048Z" fill="var(--fill-0, #851919)"/>
<path d="M14.2857 0H11.9048V1.19048H13.0952V2.38095H14.2857V0Z" fill="var(--fill-0, #851919)"/>
<path d="M3.57143 1.19048H2.38095V2.38095H3.57143V1.19048Z" fill="var(--fill-0, #851919)"/>
<path d="M11.9048 1.19048H10.7143V2.38095H11.9048V1.19048Z" fill="var(--fill-0, #851919)"/>
<path d="M2.38095 2.38095H1.19048V3.57143H2.38095V2.38095Z" fill="var(--fill-0, #851919)"/>
<path d="M4.7619 2.38095H3.57143V3.57143H4.7619V2.38095Z" fill="var(--fill-0, #851919)"/>
<path d="M10.7143 2.38095H9.52381V3.57143H10.7143V2.38095Z" fill="var(--fill-0, #851919)"/>
<path d="M13.0952 2.38095H11.9048V3.57143H13.0952V2.38095Z" fill="var(--fill-0, #851919)"/>
<path d="M3.57143 3.57143H2.38095V4.7619H3.57143V3.57143Z" fill="var(--fill-0, #851919)"/>
<path d="M5.95238 3.57143H4.7619V4.7619H5.95238V3.57143Z" fill="var(--fill-0, #851919)"/>
<path d="M9.52381 3.57143H8.33333V4.7619H9.52381V3.57143Z" fill="var(--fill-0, #851919)"/>
<path d="M11.9048 3.57143H10.7143V4.7619H11.9048V3.57143Z" fill="var(--fill-0, #851919)"/>
<path d="M4.7619 4.7619H3.57143V5.95238H4.7619V4.7619Z" fill="var(--fill-0, #851919)"/>
<path d="M8.33333 4.7619H5.95238V5.95238H8.33333V4.7619Z" fill="var(--fill-0, #851919)"/>
<path d="M10.7143 4.7619H9.52381V5.95238H10.7143V4.7619Z" fill="var(--fill-0, #851919)"/>
<path d="M5.95238 5.95238H4.7619V8.33333H5.95238V5.95238Z" fill="var(--fill-0, #851919)"/>
<path d="M9.52381 5.95238H8.33333V8.33333H9.52381V5.95238Z" fill="var(--fill-0, #851919)"/>
<path d="M4.7619 8.33333H3.57143V9.52381H4.7619V8.33333Z" fill="var(--fill-0, #851919)"/>
<path d="M8.33333 8.33333H5.95238V9.52381H8.33333V8.33333Z" fill="var(--fill-0, #851919)"/>
<path d="M10.7143 8.33333H9.52381V9.52381H10.7143V8.33333Z" fill="var(--fill-0, #851919)"/>
<path d="M3.57143 9.52381H2.38095V10.7143H3.57143V9.52381Z" fill="var(--fill-0, #851919)"/>
<path d="M5.95238 9.52381H4.7619V10.7143H5.95238V9.52381Z" fill="var(--fill-0, #851919)"/>
<path d="M9.52381 9.52381H8.33333V10.7143H9.52381V9.52381Z" fill="var(--fill-0, #851919)"/>
<path d="M11.9048 9.52381H10.7143V10.7143H11.9048V9.52381Z" fill="var(--fill-0, #851919)"/>
<path d="M2.38095 10.7143H1.19048V11.9048H2.38095V10.7143Z" fill="var(--fill-0, #851919)"/>
<path d="M4.7619 10.7143H3.57143V11.9048H4.7619V10.7143Z" fill="var(--fill-0, #851919)"/>
<path d="M10.7143 10.7143H9.52381V11.9048H10.7143V10.7143Z" fill="var(--fill-0, #851919)"/>
<path d="M13.0952 10.7143H11.9048V11.9048H13.0952V10.7143Z" fill="var(--fill-0, #851919)"/>
<path d="M2.38095 13.0952H1.19048V11.9048H0V14.2857H2.38095V13.0952Z" fill="var(--fill-0, #851919)"/>
<path d="M3.57143 11.9048H2.38095V13.0952H3.57143V11.9048Z" fill="var(--fill-0, #851919)"/>
<path d="M11.9048 11.9048H10.7143V13.0952H11.9048V11.9048Z" fill="var(--fill-0, #851919)"/>
<path d="M14.2857 11.9048H13.0952V13.0952H11.9048V14.2857H14.2857V11.9048Z" fill="var(--fill-0, #851919)"/>
</g>
</g>
</svg>
