<svg preserveAspectRatio="none" width="100%" height="100%" overflow="visible" style="display: block;" viewBox="0 0 24 22.2859" fill="none" xmlns="http://www.w3.org/2000/svg">
<g id="heart">
<path id="Vector 1" d="M3.42857 1.71449L1.71429 3.42878V10.2859L12 20.5716L22.2857 10.2859V3.42878L20.5714 1.71449H15.4286L12 5.14307L8.57143 1.71449H3.42857Z" fill="var(--fill-0, #D43620)"/>
<rect id="Rectangle 39" y="10.2859" width="1.71429" height="1.71429" fill="var(--fill-0, #650C15)"/>
<rect id="Rectangle 40" x="1.71429" y="12.0002" width="1.71429" height="1.71429" fill="var(--fill-0, #650C15)"/>
<rect id="Rectangle 41" x="3.42857" y="13.7145" width="1.71429" height="1.71429" fill="var(--fill-0, #650C15)"/>
<rect id="Rectangle 42" x="5.14286" y="15.4288" width="1.71429" height="1.71429" fill="var(--fill-0, #650C15)"/>
<rect id="Rectangle 43" x="6.85714" y="17.1431" width="1.71429" height="1.71429" fill="var(--fill-0, #650C15)"/>
<rect id="Rectangle 44" x="8.57143" y="18.8574" width="1.71429" height="1.71429" fill="var(--fill-0, #650C15)"/>
<rect id="Rectangle 45" x="10.2857" y="20.5716" width="1.71429" height="1.71429" fill="var(--fill-0, #650C15)"/>
<rect id="Rectangle 46" x="12" y="20.5716" width="1.71429" height="1.71429" fill="var(--fill-0, #650C15)"/>
<rect id="Rectangle 75" x="12" y="18.8574" width="1.71429" height="1.71429" fill="var(--fill-0, #851919)"/>
<rect id="Rectangle 81" width="1.71429" height="1.71429" transform="matrix(-1 0 0 1 12 18.8574)" fill="var(--fill-0, #851919)"/>
<rect id="Rectangle 47" x="13.7143" y="18.8574" width="1.71429" height="1.71429" fill="var(--fill-0, #650C15)"/>
<rect id="Rectangle 76" x="13.7143" y="17.1431" width="1.71429" height="1.71429" fill="var(--fill-0, #851919)"/>
<rect id="Rectangle 82" width="1.71429" height="1.71429" transform="matrix(-1 0 0 1 10.2857 17.1431)" fill="var(--fill-0, #851919)"/>
<rect id="Rectangle 48" x="15.4286" y="17.1431" width="1.71429" height="1.71429" fill="var(--fill-0, #650C15)"/>
<rect id="Rectangle 77" x="15.4286" y="15.4288" width="1.71429" height="1.71429" fill="var(--fill-0, #851919)"/>
<rect id="Rectangle 83" width="1.71429" height="1.71429" transform="matrix(-1 0 0 1 8.57143 15.4288)" fill="var(--fill-0, #851919)"/>
<rect id="Rectangle 49" x="17.1429" y="15.4288" width="1.71429" height="1.71429" fill="var(--fill-0, #650C15)"/>
<rect id="Rectangle 78" x="17.1429" y="13.7145" width="1.71429" height="1.71429" fill="var(--fill-0, #851919)"/>
<rect id="Rectangle 84" width="1.71429" height="1.71429" transform="matrix(-1 0 0 1 6.85714 13.7145)" fill="var(--fill-0, #851919)"/>
<rect id="Rectangle 50" x="18.8571" y="13.7145" width="1.71429" height="1.71429" fill="var(--fill-0, #650C15)"/>
<rect id="Rectangle 79" x="18.8571" y="12.0002" width="1.71429" height="1.71429" fill="var(--fill-0, #851919)"/>
<rect id="Rectangle 85" width="1.71429" height="1.71429" transform="matrix(-1 0 0 1 5.14286 12.0002)" fill="var(--fill-0, #851919)"/>
<rect id="Rectangle 51" x="20.5714" y="12.0002" width="1.71429" height="1.71429" fill="var(--fill-0, #650C15)"/>
<rect id="Rectangle 80" x="20.5714" y="10.2859" width="1.71429" height="1.71429" fill="var(--fill-0, #851919)"/>
<rect id="Rectangle 86" width="1.71429" height="1.71429" transform="matrix(-1 0 0 1 3.42857 10.2859)" fill="var(--fill-0, #851919)"/>
<rect id="Rectangle 52" x="22.2857" y="10.2859" width="1.71429" height="1.71429" fill="var(--fill-0, #650C15)"/>
<rect id="Rectangle 53" x="22.2857" y="8.57164" width="1.71429" height="1.71429" fill="var(--fill-0, #650C15)"/>
<rect id="Rectangle 54" x="22.2857" y="6.85735" width="1.71429" height="1.71429" fill="var(--fill-0, #650C15)"/>
<rect id="Rectangle 55" x="22.2857" y="5.14307" width="1.71429" height="1.71429" fill="var(--fill-0, #650C15)"/>
<rect id="Rectangle 56" x="22.2857" y="3.42878" width="1.71429" height="1.71429" fill="var(--fill-0, #650C15)"/>
<rect id="Rectangle 57" x="20.5714" y="1.71449" width="1.71429" height="1.71429" fill="var(--fill-0, #650C15)"/>
<rect id="Rectangle 58" x="18.8571" y="0.000209263" width="1.71429" height="1.71429" fill="var(--fill-0, #650C15)"/>
<rect id="Rectangle 59" x="17.1429" y="0.000209263" width="1.71429" height="1.71429" fill="var(--fill-0, #650C15)"/>
<rect id="Rectangle 60" x="15.4286" y="0.000209263" width="1.71429" height="1.71429" fill="var(--fill-0, #650C15)"/>
<rect id="Rectangle 61" x="13.7143" y="1.71449" width="1.71429" height="1.71429" fill="var(--fill-0, #650C15)"/>
<rect id="Rectangle 62" x="12" y="3.42878" width="1.71429" height="1.71429" fill="var(--fill-0, #650C15)"/>
<rect id="Rectangle 63" x="10.2857" y="3.42878" width="1.71429" height="1.71429" fill="var(--fill-0, #650C15)"/>
<rect id="Rectangle 64" x="8.57143" y="1.71449" width="1.71429" height="1.71429" fill="var(--fill-0, #650C15)"/>
<rect id="Rectangle 65" x="6.85714" y="0.000209263" width="1.71429" height="1.71429" fill="var(--fill-0, #650C15)"/>
<rect id="Rectangle 66" x="5.14286" y="0.000209263" width="1.71429" height="1.71429" fill="var(--fill-0, #650C15)"/>
<rect id="Rectangle 67" x="3.42857" y="0.000209263" width="1.71429" height="1.71429" fill="var(--fill-0, #650C15)"/>
<rect id="Rectangle 68" x="1.71429" y="1.71449" width="1.71429" height="1.71429" fill="var(--fill-0, #650C15)"/>
<rect id="Rectangle 69" x="5.14286" y="5.14307" width="1.71429" height="1.71429" fill="var(--fill-0, #FC9C6C)"/>
<rect id="Rectangle 70" x="3.42857" y="6.85735" width="1.71429" height="1.71429" fill="var(--fill-0, #FC9C6C)"/>
<rect id="Rectangle 71" y="3.42878" width="1.71429" height="1.71429" fill="var(--fill-0, #650C15)"/>
<rect id="Rectangle 72" y="5.14307" width="1.71429" height="1.71429" fill="var(--fill-0, #650C15)"/>
<rect id="Rectangle 73" y="6.85735" width="1.71429" height="1.71429" fill="var(--fill-0, #650C15)"/>
<rect id="Rectangle 74" y="8.57164" width="1.71429" height="1.71429" fill="var(--fill-0, #650C15)"/>
</g>
</svg>
