<svg preserveAspectRatio="none" width="100%" height="100%" overflow="visible" style="display: block;" viewBox="0 0 30.1412 32.0002" fill="none" xmlns="http://www.w3.org/2000/svg">
<g id="Group 1">
<path id="Vector" d="M20.7371 0.0187203C21.4738 0.00364578 22.2102 -0.00248762 22.947 0.00964288C23.3037 0.0155037 23.8435 -0.0232594 24.1782 0.0239542C24.2549 0.16276 24.2232 1.29796 24.2292 1.5675C24.7466 1.69774 25.1941 1.68011 25.7236 1.6797C25.7313 2.40663 25.731 3.13361 25.7227 3.86054C26.0298 3.8497 26.3931 3.87728 26.7102 3.87461C27.3401 3.86935 27.9679 3.86531 28.5979 3.87595C28.5665 4.2626 28.5903 5.00534 28.5894 5.41638C28.7167 5.51255 29.8257 5.4552 30.1127 5.47611C30.0623 5.88326 30.0934 7.10691 30.0977 7.57891C30.1122 8.78114 30.1152 9.98347 30.1064 11.1858L30.0966 24.8281C30.0874 25.9466 30.1323 27.1937 30.0993 28.2874L30.1165 29.3805C30.1252 29.743 30.2583 30.2233 29.8028 30.2697C29.3933 30.3114 28.9531 30.2631 28.5562 30.3149C28.5764 30.5575 28.5766 31.7242 28.5554 31.9699C26.9705 32.0241 25.2512 31.99 23.6587 31.9854L17.067 31.9865L8.51175 31.9851C7.87617 31.9862 1.81711 32.023 1.70172 31.9227C1.61828 31.622 1.69561 30.7623 1.65352 30.3738L1.63632 30.3615C1.04239 29.9788 0.712613 30.0715 5.91244e-05 30.0797C0.0104614 29.4655 0.0477633 28.8484 0.0486411 28.2353C0.0495216 27.6198 0.109812 27.0203 0.117984 26.4062C0.162959 21.5337 0.174866 16.6611 0.153708 11.7886L0.154299 7.60696C0.154086 7.0109 0.184748 6.05821 0.136839 5.48559C0.438608 5.45332 1.07786 5.46709 1.42375 5.45575C1.41315 3.82203 1.21287 3.86341 2.8461 3.86829C3.40896 3.87464 3.97189 3.87115 4.53461 3.85776C4.44495 3.14177 4.51365 2.43533 4.46461 1.72541C4.96676 1.70906 5.33154 1.57698 5.80586 1.60539C5.78348 1.09656 5.79569 0.517597 5.79545 0.00359126C6.19608 0.0326227 6.66614 0.00691689 7.07386 0.00969737C7.88195 0.0152311 8.70172 -0.0044229 9.50912 0.016567C9.50318 1.69706 9.25376 1.67656 10.9462 1.6677C10.9607 2.3894 10.9519 3.14626 10.9546 3.87074C11.3512 3.86237 11.7508 3.87685 12.1479 3.87268C14.5225 3.84765 16.9091 3.9019 19.2823 3.86559C19.2728 3.223 19.3264 2.28573 19.2747 1.67591C19.8404 1.67397 20.1987 1.61338 20.7394 1.57235C20.7324 1.05807 20.7374 0.533817 20.7371 0.0187203Z" fill="var(--fill-0, #FEEDBF)"/>
<path id="Vector_2" d="M20.737 0.0185219C21.4737 0.00344742 22.2102 -0.00268598 22.9469 0.00944451C23.3036 0.0153053 23.8434 -0.0234577 24.1782 0.0237558C24.2548 0.162561 24.2232 1.29776 24.2292 1.5673C24.7465 1.69755 25.194 1.67991 25.7236 1.6795C25.7312 2.40643 25.7309 3.13342 25.7227 3.86035C26.0297 3.8495 26.3931 3.87708 26.7101 3.87441C27.3401 3.86915 27.9679 3.86512 28.5978 3.87575C28.5665 4.2624 28.5902 5.00514 28.5894 5.41618L28.4583 5.4055C28.4861 5.42016 28.5463 5.44355 28.5482 5.46422C28.5891 5.92141 28.5545 6.52453 28.564 6.98137C28.5591 7.99835 28.543 9.04754 28.5618 10.0617C28.5561 10.6544 28.543 11.2502 28.5545 11.8424C28.0469 11.8383 27.5391 11.8368 27.0312 11.8378C25.3083 11.8157 23.5146 11.8397 21.7873 11.8404L10.6847 11.8428C8.23577 11.8454 5.70611 11.8674 3.25948 11.835C2.9831 11.8053 2.01408 11.8347 1.68661 11.8365L1.68571 11.8123C1.3563 11.8011 0.357129 11.8751 0.153645 11.7884L0.154237 7.60676C0.154024 7.0107 0.184686 6.05801 0.136777 5.4854C0.438545 5.45312 1.0778 5.46689 1.42369 5.45555C1.41309 3.82183 1.21281 3.86321 2.84604 3.86809C3.40889 3.87444 3.97183 3.87095 4.53455 3.85757C4.44489 3.14157 4.51359 2.43514 4.46455 1.72521C4.96669 1.70886 5.33148 1.57679 5.8058 1.60519C5.78342 1.09636 5.79563 0.517399 5.79538 0.00339289C6.19602 0.0324243 6.66608 0.00671853 7.0738 0.009499C7.88188 0.0150327 8.70166 -0.00462126 9.50906 0.0163686C9.50312 1.69687 9.25369 1.67637 10.9461 1.66751C10.9606 2.3892 10.9519 3.14606 10.9545 3.87054C11.3512 3.86217 11.7508 3.87665 12.1479 3.87248C14.5224 3.84745 16.909 3.9017 19.2822 3.86539C19.2727 3.2228 19.3264 2.28553 19.2747 1.67571C19.8403 1.67378 20.1987 1.61318 20.7393 1.57215C20.7324 1.05787 20.7373 0.533618 20.737 0.0185219Z" fill="var(--fill-0, #492304)"/>
<path id="Vector_3" d="M6.40341 8.46654C6.44214 8.57473 6.4268 8.69323 6.42099 8.80944C6.43383 9.22495 6.42374 9.65786 6.41987 10.075C6.92971 10.07 7.5 10.0491 8.00392 10.058C8.00466 9.77753 7.99675 9.37641 8.0296 9.10643L8.04078 8.49148L9.53678 8.49372L9.53193 10.037L15.1425 10.0416L16.7487 10.0412C16.9363 10.0415 17.4548 10.0356 17.616 10.0664C18.6221 10.0718 19.6282 10.0673 20.6342 10.0529C21.1198 10.0816 21.7201 10.041 22.2382 10.0555C22.7764 10.0656 23.3374 10.0324 23.8733 10.0644C23.8731 9.89464 23.8752 9.79923 23.895 9.62921C23.9001 9.77693 23.9022 9.92473 23.9015 10.0725C24.417 10.0511 24.9329 10.0411 25.4488 10.0424C26.4577 10.0526 27.5731 10.0303 28.5618 10.0617C28.5561 10.6544 28.543 11.2502 28.5545 11.8424C28.0469 11.8383 27.5391 11.8367 27.0312 11.8378C25.3083 11.8157 23.5146 11.8396 21.7873 11.8403L10.6847 11.8427C8.23577 11.8453 5.70611 11.8674 3.25948 11.835C2.9831 11.8052 2.01407 11.8347 1.68661 11.8364L1.68571 11.8122C1.69934 11.2265 1.68034 10.6523 1.68385 10.0675C2.73174 10.0729 3.7766 10.0373 4.81815 10.0452C4.80273 9.80217 4.82966 8.7478 4.84392 8.49696L6.40341 8.46654Z" fill="var(--fill-0, #78180C)"/>
<path id="Vector_4" d="M8.04078 8.49151L9.53678 8.49374L9.53193 10.037L15.1425 10.0416L16.7487 10.0412C16.9363 10.0415 17.4548 10.0356 17.616 10.0664C16.8748 10.1078 15.8955 10.0605 15.1258 10.0691C12.7643 10.0956 10.3923 10.0337 8.03186 10.0795C8.02398 9.7539 8.04304 9.43771 8.0296 9.10646L8.04078 8.49151Z" fill="var(--fill-0, #AA2816)"/>
<path id="Vector_5" d="M6.40341 8.46654C6.44214 8.57473 6.4268 8.69323 6.42099 8.80944C6.38471 9.17553 6.39229 9.68231 6.39133 10.0622C5.97843 10.0336 5.1462 10.0883 4.81816 10.0452C4.80273 9.80217 4.82966 8.7478 4.84392 8.49696L6.40341 8.46654Z" fill="var(--fill-0, #AA2816)"/>
<path id="Vector_6" d="M9.53934 5.45661L9.55763 5.45585C9.58208 5.91934 9.56526 6.49722 9.56202 6.97023L20.7171 6.96352C20.7165 7.12078 20.7245 7.40474 20.7134 7.55162C20.6736 7.97864 20.7828 9.78118 20.7035 10.0236L20.6342 10.053C19.6282 10.0674 18.6221 10.0719 17.616 10.0664C17.4548 10.0356 16.9363 10.0416 16.7487 10.0413L15.1425 10.0416L9.53192 10.037L9.53677 8.49376L9.53934 5.45661Z" fill="var(--fill-0, #AA2816)"/>
<path id="Vector_7" d="M9.55444 5.43934C11.9276 5.41559 14.3009 5.4129 16.6741 5.4313C17.9745 5.43168 19.4264 5.38245 20.7112 5.43664L20.7253 5.45147C20.7338 5.96212 20.7128 6.46111 20.7171 6.9635L9.56202 6.97021C9.56526 6.4972 9.58208 5.91932 9.55763 5.45583L9.55444 5.43934Z" fill="var(--fill-0, #DD502F)"/>
<path id="Vector_8" d="M25.6032 5.43419C25.8078 5.39649 26.3339 5.41121 26.564 5.40957C27.1907 5.40518 27.8318 5.42893 28.4583 5.40548C28.4861 5.42015 28.5463 5.44354 28.5482 5.4642C28.5891 5.9214 28.5545 6.52451 28.564 6.98136C28.5591 7.99833 28.543 9.04752 28.5618 10.0617C27.5731 10.0304 26.4577 10.0527 25.4488 10.0425C25.3733 9.7048 25.5351 7.88406 25.4336 7.70665C25.4265 7.20617 25.4238 6.70563 25.4254 6.20509C25.4262 5.98671 25.418 5.634 25.4424 5.43149L25.6032 5.43419Z" fill="var(--fill-0, #AA2816)"/>
<path id="Vector_9" d="M25.6032 5.43419C25.8078 5.39649 26.3339 5.41121 26.564 5.40957C27.1907 5.40518 27.8318 5.42893 28.4583 5.40548C28.4861 5.42015 28.5463 5.44354 28.5482 5.4642C28.5891 5.9214 28.5545 6.52451 28.564 6.98136C28.2342 6.94431 27.3466 6.96331 26.9944 6.96266C27.031 6.49837 27.0285 5.91006 27.0375 5.43787C26.6297 5.44125 25.9924 5.46458 25.6032 5.43419Z" fill="var(--fill-0, #DD502F)"/>
<path id="Vector_10" d="M25.4424 5.43146L25.6032 5.43416C25.9924 5.46456 26.6297 5.44122 27.0375 5.43784C27.0285 5.91003 27.0309 6.49835 26.9944 6.96263L25.4491 6.98111C25.4433 6.50026 25.4818 5.90401 25.4424 5.43146Z" fill="var(--fill-0, #DD502F)"/>
<path id="Vector_11" d="M1.68314 6.91748L1.71951 6.98247C2.23174 6.99119 2.74468 6.96898 3.25877 6.96911L3.28295 6.9635L4.84539 6.98285C4.84171 7.35473 4.8109 8.15144 4.84392 8.49698C4.82966 8.74782 4.80273 9.8022 4.81815 10.0452C3.77659 10.0373 2.73174 10.0729 1.68385 10.0676L1.68314 6.91748Z" fill="var(--fill-0, #AA2816)"/>
<path id="Vector_12" d="M1.7195 6.98248C2.23174 6.99121 2.74468 6.96899 3.25877 6.96913C3.26196 7.45713 3.26703 8.00444 3.28663 8.49299C2.75858 8.48195 2.23029 8.48876 1.70271 8.51343C1.69159 8.01486 1.72746 7.50017 1.7195 6.98248Z" fill="var(--fill-0, #AA2816)"/>
<path id="Vector_13" d="M23.8516 3.88033L23.8486 4.04512C23.8763 4.3414 23.8645 4.77134 23.8653 5.07738C23.867 5.69067 23.8723 6.30392 23.8811 6.91713L23.8649 6.96189C23.7768 7.02104 22.4808 6.98825 22.2745 6.98628C22.2739 6.83726 22.2817 6.68196 22.2425 6.53906C22.2278 6.21258 22.2372 5.79679 22.2357 5.46359C22.2368 5.12233 22.2284 4.70327 22.2588 4.37016C22.2548 4.22942 22.2613 4.04896 22.2625 3.9053C22.5405 3.87104 23.5145 3.88352 23.8516 3.88033Z" fill="var(--fill-0, #8D8782)"/>
<path id="Vector_14" d="M23.8516 3.88033L23.8486 4.04512C23.8201 4.45038 23.8359 5.01861 23.8364 5.43642L22.2661 5.4417C22.267 5.17723 22.2831 4.60694 22.2588 4.37016C22.2548 4.22942 22.2613 4.04896 22.2625 3.9053C22.5405 3.87104 23.5145 3.88352 23.8516 3.88033Z" fill="var(--fill-0, #CEC7BE)"/>
<path id="Vector_15" d="M8.00463 3.89722C8.00305 3.73901 7.98903 3.35413 8.02224 3.22099C8.05249 3.9193 8.03377 4.72981 8.03767 5.43763L8.03576 6.98049C7.93274 6.96883 7.59069 6.98106 7.46197 6.98207C7.13251 6.98466 6.74848 6.96136 6.42532 6.98796C6.42038 6.34976 6.41981 5.71153 6.42357 5.07331C6.42447 4.78397 6.41207 4.20198 6.44672 3.93386L6.45217 3.9217C6.60316 3.87399 7.77289 3.89215 8.00463 3.89722Z" fill="var(--fill-0, #8D8782)"/>
<path id="Vector_16" d="M8.00463 3.89722C8.00305 3.73901 7.98904 3.35413 8.02224 3.22099C8.0525 3.9193 8.03377 4.72981 8.03767 5.43763C7.52195 5.45142 6.97561 5.43905 6.45744 5.43498C6.4573 5.00486 6.47946 4.34 6.44672 3.93386L6.45217 3.9217C6.60316 3.87399 7.7729 3.89215 8.00463 3.89722Z" fill="var(--fill-0, #CEC7BE)"/>
<path id="Vector_17" d="M22.2472 1.58712C22.7509 1.56823 23.3546 1.55269 23.8562 1.57878C23.8586 1.87468 23.885 2.88143 23.8546 3.12238C23.8514 3.37502 23.8504 3.62769 23.8516 3.88033C23.5145 3.88352 22.5405 3.87104 22.2625 3.9053C22.2657 3.77263 22.2608 3.62314 22.2594 3.48902L22.2619 3.12235C22.2426 2.63204 22.2506 2.08205 22.2472 1.58712Z" fill="var(--fill-0, #CEC7BE)"/>
<path id="Vector_18" d="M22.2619 3.12234L23.8546 3.12236C23.8514 3.375 23.8504 3.62767 23.8516 3.88032C23.5145 3.8835 22.5405 3.87102 22.2625 3.90528C22.2657 3.77261 22.2608 3.62312 22.2594 3.489L22.2619 3.12234Z" fill="var(--fill-0, #CEC7BE)"/>
<path id="Vector_19" d="M6.45221 1.56443C6.90551 1.56084 7.59913 1.53979 8.03928 1.57782C8.03326 1.83954 8.05202 3.08143 8.02225 3.221C7.98905 3.35413 8.00306 3.73901 8.00464 3.89722C7.7729 3.89215 6.60317 3.874 6.45218 3.9217C6.42429 3.23018 6.43983 2.26656 6.45221 1.56443Z" fill="var(--fill-0, #CEC7BE)"/>
<path id="Vector_20" d="M8.02224 3.22096C8.33428 3.24239 9.20424 3.17718 9.53997 3.15641C9.58388 3.83746 9.49409 4.85294 9.55444 5.43932L9.55763 5.45581L9.53934 5.45657C9.32094 5.40475 8.34175 5.45513 8.0649 5.46521L8.06362 6.97136C8.06329 7.14813 8.0709 7.63902 8.04034 7.79615C8.02772 7.55201 8.03639 7.23049 8.03576 6.98046L8.03767 5.4376C8.03377 4.72978 8.0525 3.91927 8.02224 3.22096Z" fill="var(--fill-0, #4A4947)"/>
<path id="Vector_21" d="M22.2261 3.17835C22.2353 3.28567 22.2439 3.38241 22.2594 3.48902C22.2608 3.62314 22.2657 3.77263 22.2626 3.9053C22.2613 4.04896 22.2548 4.22942 22.2588 4.37016C22.2285 4.70327 22.2368 5.12233 22.2357 5.4636C21.7824 5.4383 21.1891 5.45307 20.7253 5.45146L20.7112 5.43664C20.7302 5.28349 20.7182 4.79576 20.7178 4.61716C20.7155 4.1505 20.7215 3.68382 20.7357 3.21738C21.1734 3.22744 21.8038 3.24303 22.2261 3.17835Z" fill="var(--fill-0, #4A4947)"/>
<path id="Vector_22" d="M3.22797 5.42558C3.76307 5.41993 4.31797 5.40704 4.8513 5.41971C4.84034 5.94067 4.83838 6.46179 4.84538 6.98283L3.28295 6.96348C3.21881 6.7843 3.23091 5.69719 3.22797 5.42558Z" fill="var(--fill-0, #DD502F)"/>
<path id="Vector_23" d="M22.2425 6.53904C22.2816 6.68194 22.2739 6.83724 22.2745 6.98626C22.4808 6.98823 23.7768 7.02102 23.8649 6.96187L23.881 6.91711C23.916 7.28601 23.8578 8.18928 23.9089 8.45127C23.6859 8.50456 22.5432 8.48461 22.2424 8.48232C22.2268 7.84851 22.2387 7.17583 22.2425 6.53904Z" fill="var(--fill-0, #8D8782)"/>
<path id="Vector_24" d="M20.7387 1.59048C21.198 1.57216 21.7733 1.59078 22.2472 1.5871C22.2506 2.08203 22.2426 2.63201 22.2619 3.12233L22.2594 3.489C22.2439 3.38239 22.2353 3.28564 22.2261 3.17832C21.8038 3.24301 21.1734 3.22742 20.7357 3.21736C20.7307 2.67506 20.7317 2.13273 20.7387 1.59048Z" fill="var(--fill-0, #4A4947)"/>
<path id="Vector_25" d="M25.4336 7.70662C25.5351 7.88403 25.3733 9.70478 25.4488 10.0424C24.9329 10.0411 24.417 10.0511 23.9015 10.0725C23.9022 9.92473 23.9001 9.77693 23.895 9.62921C23.8941 9.43106 23.8504 8.5855 23.9343 8.47463C24.4074 8.49996 24.9564 8.48796 25.4358 8.48758C25.4308 8.22728 25.4301 7.96693 25.4336 7.70662Z" fill="var(--fill-0, #AA2816)"/>
<path id="Vector_26" d="M1.68326 5.43667C2.19803 5.42195 2.71304 5.41827 3.22797 5.42558C3.23092 5.69719 3.21881 6.7843 3.28296 6.96348L3.25878 6.96909C2.74469 6.96896 2.23175 6.99117 1.71951 6.98245L1.68315 6.91746C1.67423 6.43047 1.682 5.92505 1.68326 5.43667Z" fill="var(--fill-0, #DD502F)"/>
<path id="Vector_27" d="M20.7134 7.55159C20.7371 7.85106 20.7331 8.18414 20.7357 8.487C21.2252 8.48236 21.7637 8.46764 22.2516 8.48065C22.2418 9.00553 22.2373 9.53049 22.2382 10.0555C21.7201 10.041 21.1198 10.0816 20.6342 10.0529L20.7035 10.0235C20.7828 9.78114 20.6736 7.97861 20.7134 7.55159Z" fill="var(--fill-0, #AA2816)"/>
<path id="Vector_28" d="M8.03576 6.98049C8.03639 7.23052 8.02772 7.55204 8.04034 7.79618L8.0359 8.47154C7.58236 8.47462 6.85793 8.51341 6.42399 8.45709C6.43797 7.98261 6.42688 7.4656 6.42532 6.98796C6.74849 6.96136 7.13252 6.98466 7.46198 6.98207C7.5907 6.98107 7.93275 6.96883 8.03576 6.98049Z" fill="var(--fill-0, #8D8782)"/>
<path id="Vector_29" d="M8.03928 1.57781C8.53886 1.62829 9.00383 1.55856 9.52487 1.63001C9.56347 2.17116 9.51091 2.67053 9.53997 3.15643C9.20424 3.17721 8.33428 3.24241 8.02224 3.22098C8.05201 3.08141 8.03325 1.83952 8.03928 1.57781Z" fill="var(--fill-0, #4A4947)"/>
<path id="Vector_30" d="M0.153648 11.7884C0.357133 11.8751 1.35631 11.801 1.68571 11.8122L1.68661 11.8365C2.01408 11.8347 2.9831 11.8052 3.25949 11.835C5.70611 11.8674 8.23577 11.8453 10.6847 11.8428L21.7873 11.8404C23.5146 11.8396 25.3083 11.8157 27.0312 11.8378C27.0225 12.3638 27.0214 12.89 27.028 13.4161L27.0091 13.4237C26.5237 13.396 25.9182 13.4164 25.4204 13.4174L22.4542 13.4238L13.6083 13.4228L6.45439 13.4249C5.79629 13.4265 5.13816 13.4237 4.48011 13.4164C4.13915 13.413 3.59241 13.3922 3.2681 13.4202C3.28778 16.9832 3.28694 20.5462 3.26554 24.1092L3.2639 27.2202C3.26398 27.6923 3.24166 28.3896 3.26889 28.8481L3.26254 28.8669C3.06515 28.837 1.95866 28.8459 1.68361 28.8419C1.68383 29.085 1.70177 30.2234 1.63626 30.3613C1.04233 29.9786 0.712554 30.0713 0 30.0794C0.0104022 29.4653 0.0477042 28.8481 0.048582 28.2351C0.0494624 27.6195 0.109752 27.0201 0.117925 26.4059C0.1629 21.5335 0.174807 16.6609 0.153648 11.7884Z" fill="var(--fill-0, #CDA572)"/>
<path id="Vector_31" d="M0.153648 11.7884C0.357133 11.8751 1.35631 11.801 1.68571 11.8122L1.68661 11.8365C1.68023 12.434 1.67963 13.0317 1.68484 13.6293L1.68361 28.8419C1.68383 29.085 1.70177 30.2234 1.63626 30.3613C1.04233 29.9786 0.712554 30.0713 0 30.0794C0.0104022 29.4653 0.0477042 28.8481 0.048582 28.2351C0.0494624 27.6195 0.109752 27.0201 0.117925 26.4059C0.1629 21.5335 0.174807 16.6609 0.153648 11.7884Z" fill="var(--fill-0, #492304)"/>
<path id="Vector_32" d="M1.68661 11.8365C2.01408 11.8347 2.9831 11.8053 3.25949 11.835C3.26546 12.3583 3.266 12.8817 3.26112 13.405C3.05139 13.4058 1.86148 13.4017 1.72971 13.441C1.69645 13.5198 1.69533 13.5438 1.68484 13.6293C1.67963 13.0317 1.68023 12.4341 1.68661 11.8365Z" fill="var(--fill-0, #A1764B)"/>
<path id="Vector_33" d="M1.6836 28.8419C1.95865 28.8459 3.06514 28.8369 3.26253 28.8669L3.26888 28.8481L18.6338 28.8541C20.2392 28.8498 21.8826 28.8852 23.4745 28.8697C24.2586 28.8558 25.0429 28.8492 25.8272 28.85C26.1794 28.8484 26.6659 28.8307 27.001 28.853L27.0086 28.874C27.014 29.3674 27.0132 29.8611 27.0064 30.3545C27.3709 30.3558 28.2238 30.3757 28.5561 30.3147C28.5763 30.5573 28.5766 31.724 28.5553 31.9696C26.9704 32.0239 25.2512 31.9898 23.6586 31.9852L17.0669 31.9862L8.51168 31.9849C7.8761 31.986 1.81704 32.0228 1.70165 31.9225C1.61821 31.6218 1.69554 30.762 1.65345 30.3736L1.63625 30.3613C1.70176 30.2234 1.68382 29.085 1.6836 28.8419Z" fill="var(--fill-0, #492304)"/>
<path id="Vector_34" d="M3.26889 28.8481L18.6338 28.8541C20.2392 28.8498 21.8826 28.8852 23.4745 28.8697C24.2586 28.8558 25.0429 28.8492 25.8272 28.85C26.1794 28.8484 26.666 28.8307 27.001 28.853L27.0086 28.874C27.0141 29.3674 27.0132 29.8611 27.0064 30.3545C25.8757 30.3812 24.6726 30.3621 23.5383 30.3599H18.5824L3.26167 30.355L3.26254 28.8669L3.26889 28.8481Z" fill="var(--fill-0, #CDA572)"/>
<path id="Vector_35" d="M1.6836 28.8419C1.95865 28.846 3.06514 28.837 3.26253 28.867L3.26166 30.3551C3.00697 30.3542 1.82006 30.3251 1.65345 30.3736L1.63625 30.3613C1.70176 30.2234 1.68382 29.085 1.6836 28.8419Z" fill="var(--fill-0, #A1764B)"/>
<path id="Vector_36" d="M28.4583 5.40548L28.5894 5.41617C28.7167 5.51234 29.8256 5.45499 30.1126 5.47589C30.0622 5.88304 30.0933 7.1067 30.0976 7.5787C30.1121 8.78092 30.1151 9.98326 30.1064 11.1855L30.0966 24.8279C30.0873 25.9464 30.1323 27.1935 30.0993 28.2871L30.1165 29.3803C30.1252 29.7428 30.2582 30.2231 29.8027 30.2695C29.3933 30.3112 28.953 30.2629 28.5561 30.3147C28.2238 30.3758 27.3709 30.3559 27.0064 30.3545C27.0132 29.8611 27.014 29.3674 27.0086 28.874L27.001 28.8531C27.0301 28.5396 27.0061 27.6209 27.0067 27.2608L27.0094 23.8442L27.0091 13.4237L27.028 13.4161C27.0214 12.89 27.0225 12.3638 27.0312 11.8378C27.5391 11.8368 28.0469 11.8383 28.5545 11.8424C28.543 11.2502 28.5561 10.6544 28.5618 10.0617C28.543 9.04752 28.5591 7.99833 28.564 6.98136C28.5545 6.52451 28.5891 5.9214 28.5482 5.4642C28.5463 5.44354 28.4861 5.42015 28.4583 5.40548Z" fill="var(--fill-0, #492304)"/>
<path id="Vector_37" d="M27.028 13.4161C27.297 13.415 28.2813 13.4035 28.5081 13.4378C28.5507 13.5276 28.5485 13.6042 28.5561 13.7038L28.5586 28.8517L28.5618 28.9997C28.5627 29.4342 28.5681 29.8816 28.5561 30.3147C28.2238 30.3758 27.3709 30.3559 27.0064 30.3545C27.0132 29.8611 27.014 29.3674 27.0086 28.874L27.001 28.8531C27.0301 28.5396 27.0061 27.6209 27.0067 27.2608L27.0094 23.8442L27.0091 13.4237L27.028 13.4161Z" fill="var(--fill-0, #CDA572)"/>
<path id="Vector_38" d="M28.5586 28.8517L28.5618 28.9997C28.5627 29.4342 28.5681 29.8815 28.5561 30.3147C28.2238 30.3758 27.3709 30.3559 27.0064 30.3545C27.0132 29.8611 27.014 29.3674 27.0086 28.874C27.1122 28.8301 28.3429 28.8506 28.5586 28.8517Z" fill="var(--fill-0, #A1764B)"/>
<path id="Vector_39" d="M27.0312 11.8378C27.5391 11.8368 28.0469 11.8383 28.5545 11.8424C28.5782 12.2912 28.5817 13.2475 28.5561 13.7038C28.5485 13.6042 28.5507 13.5276 28.5081 13.4378C28.2813 13.4035 27.297 13.415 27.0279 13.4161C27.0214 12.89 27.0225 12.3639 27.0312 11.8378Z" fill="var(--fill-0, #A1764B)"/>
<path id="Vector_40" d="M30.0824 28.8533C30.081 28.7263 30.0628 28.3847 30.0993 28.2872L30.1165 29.3803C30.1252 29.7428 30.2582 30.2231 29.8027 30.2695C29.3933 30.3112 28.953 30.2629 28.5561 30.3147C28.5681 29.8816 28.5627 29.4342 28.5618 28.9997C28.5733 28.9198 28.5747 28.9068 28.612 28.8356C29.1021 28.8332 29.5925 28.8392 30.0824 28.8533Z" fill="var(--fill-0, #492304)"/>
<path id="Vector_41" d="M5.34064 15.3329L8.06747 15.332C8.0631 16.2484 8.06755 17.1649 8.08077 18.0812C7.85135 18.1205 7.31592 18.1093 7.06666 18.11C6.48859 18.1135 5.9105 18.1126 5.33246 18.1072L5.34064 15.3329Z" fill="var(--fill-0, #A1764B)"/>
<path id="Vector_42" d="M7.6444 24.3958L8.06207 24.3945C8.06191 25.1708 8.02429 26.401 8.07924 27.1493C7.44412 27.182 6.53905 27.1499 5.87318 27.148C5.69872 27.1556 5.51415 27.1441 5.3389 27.1371L5.3302 24.4062C6.08834 24.3792 6.87462 24.4152 7.6444 24.3958Z" fill="var(--fill-0, #A1764B)"/>
<path id="Vector_43" d="M16.5666 15.3295L19.2652 15.3327C19.2565 16.2524 19.2707 17.1708 19.2596 18.0886C18.5702 18.142 17.2922 18.102 16.5666 18.0867L16.5666 15.3295Z" fill="var(--fill-0, #A1764B)"/>
<path id="Vector_44" d="M10.9764 15.3306L13.6697 15.3287C13.6432 16.2342 13.6582 17.1759 13.6559 18.0863C13.3286 18.1371 12.7133 18.1058 12.3605 18.1029C11.9024 18.0991 11.437 18.1042 10.9801 18.0995C10.9568 17.2065 10.9765 16.2317 10.9764 15.3306Z" fill="var(--fill-0, #A1764B)"/>
<path id="Vector_45" d="M18.9037 24.3958L19.2639 24.3926C19.2568 25.3019 19.2767 26.2555 19.2504 27.1575C18.4786 27.1736 17.6659 27.1504 16.886 27.1561L16.5708 27.1515L16.5616 24.4089C17.2931 24.3716 18.1445 24.4146 18.9037 24.3958Z" fill="var(--fill-0, #A1764B)"/>
<path id="Vector_46" d="M22.2366 15.3311L24.9023 15.3298C24.9022 15.6458 24.931 18.0062 24.8715 18.1063C23.991 18.0937 23.1103 18.0943 22.2298 18.1078C22.2191 17.1823 22.2214 16.2566 22.2366 15.3311Z" fill="var(--fill-0, #A1764B)"/>
<path id="Vector_47" d="M11.1845 24.3947C12.0138 24.3765 12.8173 24.4144 13.6718 24.3855C13.6455 25.3028 13.6762 26.2056 13.6539 27.1046C13.6038 27.1591 13.5824 27.1444 13.4924 27.1548C13.034 27.1586 12.5692 27.148 12.1098 27.1482C11.7486 27.1485 11.3351 27.1646 10.9793 27.1373C10.9707 26.4594 10.9848 25.779 10.9724 25.1008C10.9684 24.883 10.9661 24.6586 10.9819 24.4419C11.0414 24.3887 11.0884 24.4032 11.1845 24.3947Z" fill="var(--fill-0, #A1764B)"/>
<path id="Vector_48" d="M24.8489 24.3977C24.868 24.4005 24.8829 24.4135 24.9017 24.425C24.9313 25.2755 24.9048 26.2786 24.9041 27.1395C24.0613 27.1373 23.1034 27.1793 22.2758 27.1471L22.2635 27.1488L22.2318 27.1229C22.1758 26.4078 22.2283 25.1814 22.2307 24.4094C22.9649 24.3696 24.0852 24.4032 24.8489 24.3977Z" fill="var(--fill-0, #A1764B)"/>
<path id="Vector_49" d="M5.33901 19.9616L8.07153 19.969C8.04533 20.8118 8.05275 21.7895 8.06422 22.6355C7.16019 22.6408 6.25613 22.6413 5.35209 22.6372C5.30011 21.9219 5.33789 20.7128 5.33901 19.9616Z" fill="var(--fill-0, #A1764B)"/>
<path id="Vector_50" d="M16.5649 19.9641C17.464 19.9597 18.3631 19.9605 19.2622 19.9665C19.2715 20.7633 19.2893 21.8538 19.2355 22.6304C18.9984 22.6457 18.6122 22.6346 18.3661 22.6352L16.5726 22.6367C16.5576 21.7459 16.5551 20.8549 16.5649 19.9641Z" fill="var(--fill-0, #A1764B)"/>
<path id="Vector_51" d="M24.7519 19.9528C24.8509 19.9473 24.8329 19.9323 24.8949 19.9783C24.9201 20.2342 24.9061 20.7043 24.9051 20.9782C24.9052 21.5307 24.9017 22.0833 24.8947 22.6358L22.3379 22.6385L22.2626 22.634C22.1824 22.528 22.2289 20.3032 22.2322 19.9671C23.0721 19.9569 23.912 19.9521 24.7519 19.9528Z" fill="var(--fill-0, #A1764B)"/>
<path id="Vector_52" d="M10.9894 19.9648C11.8764 19.9626 12.7634 19.9653 13.6504 19.9731C13.6935 20.7818 13.658 21.7816 13.6643 22.6108C12.7695 22.6455 11.8722 22.5954 10.9958 22.6286C10.9487 21.8926 10.9695 20.7161 10.9894 19.9648Z" fill="var(--fill-0, #AA2816)"/>
</g>
</svg>
