<svg preserveAspectRatio="none" width="100%" height="100%" overflow="visible" style="display: block;" viewBox="0 0 23.9998 24.0002" fill="none" xmlns="http://www.w3.org/2000/svg">
<g id="Group">
<path id="Vector" d="M6.5454 19.6365H8.72722V21.8183H6.5454V19.6365ZM9.53588e-06 21.8183H2.18183V24.0002H9.53588e-06V21.8183ZM9.53588e-06 19.6365H2.18183V21.8183H9.53588e-06V19.6365ZM9.53588e-06 17.4547H2.18183V19.6365H9.53588e-06V17.4547Z" fill="var(--fill-0, #5C3515)"/>
<path id="Vector_2" d="M2.18178 21.8181H4.3636V23.9999H2.18178V21.8181ZM13.0907 21.8181H15.2726V23.9999H13.0907V21.8181Z" fill="var(--fill-0, #5C3515)"/>
<path id="Vector_3" d="M10.909 21.8181H13.0909V23.9999H10.909V21.8181ZM15.2726 21.8181H17.4544V23.9999H15.2726V21.8181ZM15.2726 10.9091H17.4544V13.091H15.2726V10.9091ZM17.4544 8.72731H19.6362V10.9091H17.4544V8.72731ZM19.6362 6.54556H21.818V8.72738L19.6362 8.72731V6.54556ZM21.818 4.36373H23.9998V6.54556H21.818V4.36373ZM17.4544 4.36373H19.6362V6.54556H17.4544V4.36373ZM15.2726 2.18191H17.4544V4.36373H15.2726V2.18191ZM21.818 2.18191H23.9998V4.36373H21.818V2.18191ZM19.6362 0.000160217H21.818V2.18191L19.6362 2.18198V0.000160217Z" fill="var(--fill-0, #5C3515)"/>
<path id="Vector_4" d="M17.4543 0.000160217H19.6361V2.18198H17.4543V0.000160217ZM17.4543 21.8181H19.6361V23.9999H17.4543V21.8181ZM19.6361 21.8181H21.818V23.9999H19.6361V21.8181ZM21.818 21.8181H23.9998V23.9999H21.818V21.8181ZM6.54542 10.9091H8.72724V13.091H6.54542V10.9091ZM4.3636 21.8181H6.54542V23.9999H4.3636V21.8181ZM4.3636 17.4545H6.54542V19.6363H4.3636V17.4545ZM8.72718 17.4545H10.909V19.6363H8.72718V17.4545ZM8.72718 8.72731H10.909V10.9091H8.72724L8.72718 8.72731ZM10.909 15.2727H13.0908V17.4545L10.909 17.4545V15.2727ZM13.0907 13.0909H15.2726V15.2727H13.0907V13.0909ZM10.909 6.54556H13.0908V8.72738L10.909 8.72731V6.54556ZM13.0907 4.36373H15.2726V6.54556H13.0907V4.36373ZM2.18178 15.2727H4.3636V17.4545L2.18178 17.4545V15.2727ZM4.3636 13.0909H6.54542V15.2727H4.3636V13.0909Z" fill="var(--fill-0, #5C3515)"/>
</g>
</svg>
