<svg preserveAspectRatio="none" width="100%" height="100%" overflow="visible" style="display: block;" viewBox="0 0 24 22.08" fill="none" xmlns="http://www.w3.org/2000/svg">
<g id="Group">
<g id="Group_2">
<path id="Vector" d="M10.56 2.88H13.44V3.84H10.56V2.88ZM9.6 3.84H10.56V6.72H9.6V3.84ZM13.44 3.84H14.4V6.72H13.44V3.84ZM10.56 6.72H13.44V7.68H10.56V6.72ZM7.68 10.56H8.64V15.36H7.68V10.56ZM15.36 10.56H16.32V15.36H15.36V10.56ZM9.6 8.64H14.4V9.6H9.6V8.64ZM8.64 9.6H9.6V10.56H8.64V9.6ZM14.4 9.6H15.36V10.56H14.4V9.6ZM13.44 15.36H14.4V21.12H13.44V15.36ZM11.52 15.36H12.48V21.12H11.52V15.36ZM2.88 0H5.76V0.96H2.88V0ZM1.92 0.96H2.88V3.84H1.92V0.96ZM5.76 0.96H6.72V3.84H5.76V0.96ZM2.88 3.84H5.76V4.8H2.88V3.84ZM0 7.68H0.96V12.48H0V7.68ZM7.68 7.68H8.64V8.64H7.68V7.68ZM1.92 5.76H6.72V6.72H1.92V5.76ZM0.96 6.72H1.92V7.68H0.96V6.72ZM6.72 6.72H7.68V7.68H6.72V6.72ZM5.76 8.64H6.72V18.24H5.76V8.64ZM3.84 13.44H4.8V18.24H3.84V13.44ZM21.12 0.96H18.24V0H21.12V0.96ZM22.08 3.84H21.12V0.96H22.08V3.84ZM18.24 3.84H17.28V0.96H18.24V3.84ZM21.12 4.8H18.24V3.84H21.12V4.8ZM24 12.48H23.04V7.68H24V12.48ZM16.32 8.64H15.36V7.68H16.32V8.64ZM22.08 6.72H17.28V5.76H22.08V6.72ZM23.04 7.68H22.08V6.72H23.04V7.68ZM17.28 7.68H16.32V6.72H17.28V7.68Z" fill="var(--fill-0, #517707)"/>
</g>
<path id="Vector_2" d="M22.08 12.48H21.12V8.64004H22.08V12.48Z" fill="var(--fill-0, #6E9E11)"/>
<path id="Vector_3" d="M17.28 8.64004H18.24V18.24H17.28V8.64004ZM20.16 18.24H19.2V13.44H20.16V18.24Z" fill="var(--fill-0, #517707)"/>
<path id="Vector_4" d="M2.88 0.96004H5.76V3.84004H2.88V0.96004ZM10.56 3.84004H13.44V6.72004H10.56V3.84004ZM18.24 0.96004H21.12V3.84004H18.24V0.96004Z" fill="var(--fill-0, #6E9E11)"/>
<path id="Vector_5" d="M2.88 0.96004V2.88004H3.84V1.92004H4.8V0.96004H2.88ZM10.56 3.84004V5.76004H11.52V4.80004H12.48V3.84004H10.56ZM18.24 0.96004V2.88004H19.2V1.92004H20.16V0.96004H18.24Z" fill="var(--fill-0, #CFFF70)"/>
<path id="Vector_6" d="M6.72 7.68004V6.72004H1.92V7.68004H0.960001V13.44H1.92V8.64004H2.88V19.2H3.84V13.44H4.8V19.2H5.76V8.64004H6.72V9.60004H7.68V7.68004H6.72ZM17.28 7.68004V6.72004H22.08V7.68004H23.04V13.44H22.08V8.64004H21.12V19.2H20.16V13.44H19.2V19.2H18.24V8.64004H17.28V9.60004H16.32V7.68004H17.28ZM14.4 10.56V9.60004H9.6V10.56H8.64V15.36H10.56V22.08H11.52V15.36H12.48V22.08H13.44V15.36H15.36V10.56H14.4Z" fill="var(--fill-0, #8CC61A)"/>
<path id="Vector_7" d="M4.8 18.24H5.76V19.2H4.8V18.24ZM2.88 18.24H3.84V19.2H2.88V18.24ZM1.92 12.48H0.960001V13.44H1.92V18.24H2.88V12.48H1.92ZM9.6 15.36H8.64V16.32H9.6V21.12H10.56V15.36H9.6ZM14.4 15.36H15.36V16.32H14.4V15.36ZM22.08 12.48H23.04V13.44H22.08V12.48ZM10.56 21.12H11.52V22.08H10.56V21.12ZM12.48 21.12H13.44V22.08H12.48V21.12ZM20.16 18.24H21.12V19.2H20.16V18.24ZM18.24 18.24H19.2V19.2H18.24V18.24Z" fill="var(--fill-0, #517707)"/>
<path id="Vector_8" d="M13.44 11.52H14.4V15.36H13.44V11.52ZM9.6 11.52H10.56V15.36H9.6V11.52ZM1.92 8.64004H2.88V12.48H1.92V8.64004Z" fill="var(--fill-0, #6E9E11)"/>
<path id="Vector_9" d="M16.32 7.68004H17.28V8.64004H16.32V7.68004ZM17.28 6.72004H22.08V7.68004H17.28V6.72004ZM8.64 10.56H9.6V11.52H8.64V10.56ZM9.6 9.60004H14.4V10.56H9.6V9.60004ZM0.960001 7.68004H1.92V8.64004H0.960001V7.68004ZM1.92 6.72004H6.72V7.68004H1.92V6.72004ZM22.08 7.68004H23.04V8.64004H22.08V7.68004ZM14.4 10.56H15.36V11.52H14.4V10.56ZM6.72 7.68004H7.68V8.64004H6.72V7.68004Z" fill="var(--fill-0, #CFFF70)"/>
<path id="Vector_10" d="M21.12 12.48H22.08V18.24H21.12V12.48Z" fill="var(--fill-0, #517707)"/>
</g>
</svg>
