<svg width="887" height="887" viewBox="0 0 887 887" fill="none" xmlns="http://www.w3.org/2000/svg">
<g clip-path="url(#clip0_4025_2)">
<path d="M806.06 295.64H779.2V322.5H806.06V295.64Z" fill="black"/>
<path d="M806.06 268.78H779.2V295.64H806.06V268.78Z" fill="black"/>
<path d="M806.06 241.91H779.2V268.78H806.06V241.91Z" fill="black"/>
<path d="M806.06 215.05H779.2V241.91H806.06V215.05Z" fill="black"/>
<path d="M779.2 295.64H752.33V322.5H779.2V295.64Z" fill="black"/>
<path d="M779.2 268.78H752.33V295.64H779.2V268.78Z" fill="#E8E325"/>
<path d="M779.2 241.91H752.33V268.78H779.2V241.91Z" fill="#E8E325"/>
<path d="M779.2 215.05H752.33V241.91H779.2V215.05Z" fill="#E8E325"/>
<path d="M779.2 188.19H752.33V215.05H779.2V188.19Z" fill="black"/>
<path d="M779.2 161.32H752.33V188.19H779.2V161.32Z" fill="black"/>
<path d="M752.33 537.42H725.47V564.28H752.33V537.42Z" fill="black"/>
<path d="M752.33 510.55H725.47V537.42H752.33V510.55Z" fill="black"/>
<path d="M752.33 483.69H725.47V510.55H752.33V483.69Z" fill="black"/>
<path d="M752.33 456.83H725.47V483.69H752.33V456.83Z" fill="black"/>
<path d="M752.33 429.96H725.47V456.83H752.33V429.96Z" fill="black"/>
<path d="M752.33 295.64H725.47V322.5H752.33V295.64Z" fill="black"/>
<path d="M752.33 268.78H725.47V295.64H752.33V268.78Z" fill="#E8E325"/>
<path d="M752.33 241.91H725.47V268.78H752.33V241.91Z" fill="#E8E325"/>
<path d="M752.33 215.05H725.47V241.91H752.33V215.05Z" fill="#E8E325"/>
<path d="M752.33 188.19H725.47V215.05H752.33V188.19Z" fill="#E8E325"/>
<path d="M752.33 161.32H725.47V188.19H752.33V161.32Z" fill="#E8E325"/>
<path d="M752.33 134.46H725.47V161.32H752.33V134.46Z" fill="black"/>
<path d="M725.46 591.15H698.6V618.01H725.46V591.15Z" fill="black"/>
<path d="M725.46 564.28H698.6V591.14H725.46V564.28Z" fill="black"/>
<path d="M725.46 537.42H698.6V564.28H725.46V537.42Z" fill="#A51313"/>
<path d="M725.46 510.55H698.6V537.42H725.46V510.55Z" fill="#A51313"/>
<path d="M725.46 483.69H698.6V510.55H725.46V483.69Z" fill="#A51313"/>
<path d="M725.46 456.83H698.6V483.69H725.46V456.83Z" fill="#A51313"/>
<path d="M725.46 429.96H698.6V456.83H725.46V429.96Z" fill="#A51313"/>
<path d="M725.46 403.1H698.6V429.96H725.46V403.1Z" fill="black"/>
<path d="M725.46 376.24H698.6V403.1H725.46V376.24Z" fill="black"/>
<path d="M725.46 268.78H698.6V295.64H725.46V268.78Z" fill="black"/>
<path d="M725.46 241.91H698.6V268.78H725.46V241.91Z" fill="#E8E325"/>
<path d="M725.46 215.05H698.6V241.91H725.46V215.05Z" fill="#E8E325"/>
<path d="M725.46 188.19H698.6V215.05H725.46V188.19Z" fill="#E8E325"/>
<path d="M725.46 161.32H698.6V188.19H725.46V161.32Z" fill="#E8E325"/>
<path d="M725.46 134.46H698.6V161.32H725.46V134.46Z" fill="#E59828"/>
<path d="M725.46 107.6H698.6V134.46H725.46V107.6Z" fill="black"/>
<path d="M725.46 80.73H698.6V107.6H725.46V80.73Z" fill="black"/>
<path d="M725.46 53.8701H698.6V80.7301H725.46V53.8701Z" fill="black"/>
<path d="M698.6 644.88H671.74V671.74H698.6V644.88Z" fill="black"/>
<path d="M698.6 618.01H671.74V644.88H698.6V618.01Z" fill="black"/>
<path d="M698.6 591.15H671.74V618.01H698.6V591.15Z" fill="#A51313"/>
<path d="M698.6 564.28H671.74V591.14H698.6V564.28Z" fill="#A51313"/>
<path d="M698.6 537.42H671.74V564.28H698.6V537.42Z" fill="#E01717"/>
<path d="M698.6 510.55H671.74V537.42H698.6V510.55Z" fill="#E01717"/>
<path d="M698.6 483.69H671.74V510.55H698.6V483.69Z" fill="#E01717"/>
<path d="M698.6 456.83H671.74V483.69H698.6V456.83Z" fill="#E01717"/>
<path d="M698.6 429.96H671.74V456.83H698.6V429.96Z" fill="#E01717"/>
<path d="M698.6 403.1H671.74V429.96H698.6V403.1Z" fill="#E01717"/>
<path d="M698.6 376.24H671.74V403.1H698.6V376.24Z" fill="#E01717"/>
<path d="M698.6 349.37H671.74V376.24H698.6V349.37Z" fill="black"/>
<path d="M698.6 322.51H671.74V349.37H698.6V322.51Z" fill="black"/>
<path d="M698.6 241.91H671.74V268.78H698.6V241.91Z" fill="black"/>
<path d="M698.6 215.05H671.74V241.91H698.6V215.05Z" fill="#E8E325"/>
<path d="M698.6 188.19H671.74V215.05H698.6V188.19Z" fill="#E8E325"/>
<path d="M698.6 161.32H671.74V188.19H698.6V161.32Z" fill="#E8E325"/>
<path d="M698.6 134.46H671.74V161.32H698.6V134.46Z" fill="#E8E325"/>
<path d="M698.6 107.6H671.74V134.46H698.6V107.6Z" fill="#E59828"/>
<path d="M698.6 80.73H671.74V107.6H698.6V80.73Z" fill="#4C5468"/>
<path d="M698.6 53.8701H671.74V80.7301H698.6V53.8701Z" fill="#4C5468"/>
<path d="M698.6 27.0098H671.74V53.8698H698.6V27.0098Z" fill="black"/>
<path d="M671.74 859.79H644.87V886.66H671.74V859.79Z" fill="black"/>
<path d="M671.74 832.92H644.87V859.78H671.74V832.92Z" fill="black"/>
<path d="M671.74 806.06H644.87V832.92H671.74V806.06Z" fill="black"/>
<path d="M671.74 779.19H644.87V806.06H671.74V779.19Z" fill="black"/>
<path d="M671.74 752.33H644.87V779.19H671.74V752.33Z" fill="black"/>
<path d="M671.74 671.74H644.87V698.6H671.74V671.74Z" fill="black"/>
<path d="M671.74 644.88H644.87V671.74H671.74V644.88Z" fill="#A51313"/>
<path d="M671.74 618.01H644.87V644.88H671.74V618.01Z" fill="#A51313"/>
<path d="M671.74 591.15H644.87V618.01H671.74V591.15Z" fill="#E01717"/>
<path d="M671.74 564.28H644.87V591.14H671.74V564.28Z" fill="#E01717"/>
<path d="M671.74 537.42H644.87V564.28H671.74V537.42Z" fill="#721111"/>
<path d="M671.74 510.55H644.87V537.42H671.74V510.55Z" fill="#721111"/>
<path d="M671.74 483.69H644.87V510.55H671.74V483.69Z" fill="#721111"/>
<path d="M671.74 456.83H644.87V483.69H671.74V456.83Z" fill="#721111"/>
<path d="M671.74 429.96H644.87V456.83H671.74V429.96Z" fill="#721111"/>
<path d="M671.74 403.1H644.87V429.96H671.74V403.1Z" fill="#E01717"/>
<path d="M671.74 376.24H644.87V403.1H671.74V376.24Z" fill="#E01717"/>
<path d="M671.74 349.37H644.87V376.24H671.74V349.37Z" fill="#E01717"/>
<path d="M671.74 322.51H644.87V349.37H671.74V322.51Z" fill="#E01717"/>
<path d="M671.74 295.64H644.87V322.5H671.74V295.64Z" fill="black"/>
<path d="M671.74 241.91H644.87V268.78H671.74V241.91Z" fill="black"/>
<path d="M671.74 215.05H644.87V241.91H671.74V215.05Z" fill="black"/>
<path d="M671.74 188.19H644.87V215.05H671.74V188.19Z" fill="#E8E325"/>
<path d="M671.74 161.32H644.87V188.19H671.74V161.32Z" fill="#E8E325"/>
<path d="M671.74 134.46H644.87V161.32H671.74V134.46Z" fill="#E8E325"/>
<path d="M671.74 107.6H644.87V134.46H671.74V107.6Z" fill="#E59828"/>
<path d="M671.74 80.73H644.87V107.6H671.74V80.73Z" fill="black"/>
<path d="M671.74 53.8701H644.87V80.7301H671.74V53.8701Z" fill="#4C5468"/>
<path d="M671.74 27.0098H644.87V53.8698H671.74V27.0098Z" fill="#4C5468"/>
<path d="M671.74 0.140137H644.87V27.0101H671.74V0.140137Z" fill="black"/>
<path d="M644.87 859.79H618.01V886.66H644.87V859.79Z" fill="black"/>
<path d="M644.87 832.92H618.01V859.78H644.87V832.92Z" fill="#8E99AF"/>
<path d="M644.87 806.06H618.01V832.92H644.87V806.06Z" fill="#8E99AF"/>
<path d="M644.87 779.19H618.01V806.06H644.87V779.19Z" fill="#8E99AF"/>
<path d="M644.87 752.33H618.01V779.19H644.87V752.33Z" fill="#2F3648"/>
<path d="M644.87 725.47H618.01V752.33H644.87V725.47Z" fill="black"/>
<path d="M644.87 698.6H618.01V725.47H644.87V698.6Z" fill="black"/>
<path d="M644.87 671.74H618.01V698.6H644.87V671.74Z" fill="#A51313"/>
<path d="M644.87 644.88H618.01V671.74H644.87V644.88Z" fill="#E01717"/>
<path d="M644.87 618.01H618.01V644.88H644.87V618.01Z" fill="#E01717"/>
<path d="M644.87 591.15H618.01V618.01H644.87V591.15Z" fill="#721111"/>
<path d="M644.87 564.28H618.01V591.14H644.87V564.28Z" fill="#721111"/>
<path d="M644.87 537.42H618.01V564.28H644.87V537.42Z" fill="#BCBCBC"/>
<path d="M644.87 510.55H618.01V537.42H644.87V510.55Z" fill="#BCBCBC"/>
<path d="M644.87 483.69H618.01V510.55H644.87V483.69Z" fill="#2F3648"/>
<path d="M644.87 456.83H618.01V483.69H644.87V456.83Z" fill="#BCBCBC"/>
<path d="M644.87 429.96H618.01V456.83H644.87V429.96Z" fill="#BCBCBC"/>
<path d="M644.87 403.1H618.01V429.96H644.87V403.1Z" fill="#721111"/>
<path d="M644.87 376.24H618.01V403.1H644.87V376.24Z" fill="#721111"/>
<path d="M644.87 349.37H618.01V376.24H644.87V349.37Z" fill="#E01717"/>
<path d="M644.87 322.51H618.01V349.37H644.87V322.51Z" fill="#E01717"/>
<path d="M644.87 295.64H618.01V322.5H644.87V295.64Z" fill="#E01717"/>
<path d="M644.87 268.78H618.01V295.64H644.87V268.78Z" fill="black"/>
<path d="M644.87 188.19H618.01V215.05H644.87V188.19Z" fill="black"/>
<path d="M644.87 161.32H618.01V188.19H644.87V161.32Z" fill="#E8E325"/>
<path d="M644.87 134.46H618.01V161.32H644.87V134.46Z" fill="#E8E325"/>
<path d="M644.87 107.6H618.01V134.46H644.87V107.6Z" fill="black"/>
<path d="M644.87 53.8701H618.01V80.7301H644.87V53.8701Z" fill="black"/>
<path d="M644.87 27.0098H618.01V53.8698H644.87V27.0098Z" fill="#4C5468"/>
<path d="M644.87 0.140137H618.01V27.0101H644.87V0.140137Z" fill="black"/>
<path d="M618.01 859.79H591.15V886.66H618.01V859.79Z" fill="black"/>
<path d="M618.01 832.92H591.15V859.78H618.01V832.92Z" fill="#8E99AF"/>
<path d="M618.01 806.06H591.15V832.92H618.01V806.06Z" fill="#2F3648"/>
<path d="M618.01 779.19H591.15V806.06H618.01V779.19Z" fill="#2F3648"/>
<path d="M618.01 752.33H591.15V779.19H618.01V752.33Z" fill="#4C5468"/>
<path d="M618.01 725.47H591.15V752.33H618.01V725.47Z" fill="#721111"/>
<path d="M618.01 698.6H591.15V725.47H618.01V698.6Z" fill="#A51313"/>
<path d="M618.01 671.74H591.15V698.6H618.01V671.74Z" fill="#E01717"/>
<path d="M618.01 644.88H591.15V671.74H618.01V644.88Z" fill="#E01717"/>
<path d="M618.01 618.01H591.15V644.88H618.01V618.01Z" fill="#721111"/>
<path d="M618.01 591.15H591.15V618.01H618.01V591.15Z" fill="#BCBCBC"/>
<path d="M618.01 564.28H591.15V591.14H618.01V564.28Z" fill="#BCBCBC"/>
<path d="M618.01 537.42H591.15V564.28H618.01V537.42Z" fill="#DDDDDD"/>
<path d="M618.01 510.55H591.15V537.42H618.01V510.55Z" fill="#BCBCBC"/>
<path d="M618.01 483.69H591.15V510.55H618.01V483.69Z" fill="#2F3648"/>
<path d="M618.01 456.83H591.15V483.69H618.01V456.83Z" fill="#DDDDDD"/>
<path d="M618.01 429.96H591.15V456.83H618.01V429.96Z" fill="#DDDDDD"/>
<path d="M618.01 403.1H591.15V429.96H618.01V403.1Z" fill="#BCBCBC"/>
<path d="M618.01 376.24H591.15V403.1H618.01V376.24Z" fill="#BCBCBC"/>
<path d="M618.01 349.37H591.15V376.24H618.01V349.37Z" fill="#721111"/>
<path d="M618.01 322.51H591.15V349.37H618.01V322.51Z" fill="#E01717"/>
<path d="M618.01 295.64H591.15V322.5H618.01V295.64Z" fill="#E01717"/>
<path d="M618.01 268.78H591.15V295.64H618.01V268.78Z" fill="#E01717"/>
<path d="M618.01 241.91H591.15V268.78H618.01V241.91Z" fill="black"/>
<path d="M618.01 161.32H591.15V188.19H618.01V161.32Z" fill="black"/>
<path d="M618.01 134.46H591.15V161.32H618.01V134.46Z" fill="black"/>
<path d="M618.01 107.6H591.15V134.46H618.01V107.6Z" fill="black"/>
<path d="M618.01 53.8701H591.15V80.7301H618.01V53.8701Z" fill="black"/>
<path d="M618.01 27.0098H591.15V53.8698H618.01V27.0098Z" fill="#4C5468"/>
<path d="M618.01 0.140137H591.15V27.0101H618.01V0.140137Z" fill="black"/>
<path d="M591.15 832.92H564.28V859.78H591.15V832.92Z" fill="black"/>
<path d="M591.15 806.06H564.28V832.92H591.15V806.06Z" fill="black"/>
<path d="M591.15 779.19H564.28V806.06H591.15V779.19Z" fill="#4C5468"/>
<path d="M591.15 752.33H564.28V779.19H591.15V752.33Z" fill="#4C5468"/>
<path d="M591.15 725.47H564.28V752.33H591.15V725.47Z" fill="#721111"/>
<path d="M591.15 698.6H564.28V725.47H591.15V698.6Z" fill="#A51313"/>
<path d="M591.15 671.74H564.28V698.6H591.15V671.74Z" fill="#E01717"/>
<path d="M591.15 644.88H564.28V671.74H591.15V644.88Z" fill="#721111"/>
<path d="M591.15 618.01H564.28V644.88H591.15V618.01Z" fill="#BCBCBC"/>
<path d="M591.15 591.15H564.28V618.01H591.15V591.15Z" fill="#DDDDDD"/>
<path d="M591.15 564.28H564.28V591.14H591.15V564.28Z" fill="#DDDDDD"/>
<path d="M591.15 537.42H564.28V564.28H591.15V537.42Z" fill="#DDDDDD"/>
<path d="M591.15 510.55H564.28V537.42H591.15V510.55Z" fill="#DDDDDD"/>
<path d="M591.15 483.69H564.28V510.55H591.15V483.69Z" fill="#DDDDDD"/>
<path d="M591.15 456.83H564.28V483.69H591.15V456.83Z" fill="#DDDDDD"/>
<path d="M591.15 429.96H564.28V456.83H591.15V429.96Z" fill="#DDDDDD"/>
<path d="M591.15 403.1H564.28V429.96H591.15V403.1Z" fill="#DDDDDD"/>
<path d="M591.15 376.24H564.28V403.1H591.15V376.24Z" fill="#DDDDDD"/>
<path d="M591.15 349.37H564.28V376.24H591.15V349.37Z" fill="#BCBCBC"/>
<path d="M591.15 322.51H564.28V349.37H591.15V322.51Z" fill="#721111"/>
<path d="M591.15 295.64H564.28V322.5H591.15V295.64Z" fill="#E01717"/>
<path d="M591.15 268.78H564.28V295.64H591.15V268.78Z" fill="#E01717"/>
<path d="M591.15 241.91H564.28V268.78H591.15V241.91Z" fill="black"/>
<path d="M591.15 53.8701H564.28V80.7301H591.15V53.8701Z" fill="black"/>
<path d="M591.15 27.0098H564.28V53.8698H591.15V27.0098Z" fill="#4C5468"/>
<path d="M591.15 0.140137H564.28V27.0101H591.15V0.140137Z" fill="black"/>
<path d="M564.28 779.19H537.42V806.06H564.28V779.19Z" fill="black"/>
<path d="M564.28 752.33H537.42V779.19H564.28V752.33Z" fill="#721111"/>
<path d="M564.28 725.47H537.42V752.33H564.28V725.47Z" fill="#A51313"/>
<path d="M564.28 698.6H537.42V725.47H564.28V698.6Z" fill="#E01717"/>
<path d="M564.28 671.74H537.42V698.6H564.28V671.74Z" fill="#721111"/>
<path d="M564.28 644.88H537.42V671.74H564.28V644.88Z" fill="#BCBCBC"/>
<path d="M564.28 618.01H537.42V644.88H564.28V618.01Z" fill="#DDDDDD"/>
<path d="M564.28 591.15H537.42V618.01H564.28V591.15Z" fill="#DDDDDD"/>
<path d="M564.28 564.28H537.42V591.14H564.28V564.28Z" fill="#BCBCBC"/>
<path d="M564.28 537.42H537.42V564.28H564.28V537.42Z" fill="#BCBCBC"/>
<path d="M564.28 510.55H537.42V537.42H564.28V510.55Z" fill="#BCBCBC"/>
<path d="M564.28 483.69H537.42V510.55H564.28V483.69Z" fill="#DDDDDD"/>
<path d="M564.28 456.83H537.42V483.69H564.28V456.83Z" fill="#DDDDDD"/>
<path d="M564.28 429.96H537.42V456.83H564.28V429.96Z" fill="#DDDDDD"/>
<path d="M564.28 403.1H537.42V429.96H564.28V403.1Z" fill="#DDDDDD"/>
<path d="M564.28 376.24H537.42V403.1H564.28V376.24Z" fill="#DDDDDD"/>
<path d="M564.28 349.37H537.42V376.24H564.28V349.37Z" fill="#DDDDDD"/>
<path d="M564.28 322.51H537.42V349.37H564.28V322.51Z" fill="#BCBCBC"/>
<path d="M564.28 295.64H537.42V322.5H564.28V295.64Z" fill="#721111"/>
<path d="M564.28 268.78H537.42V295.64H564.28V268.78Z" fill="#E01717"/>
<path d="M564.28 241.91H537.42V268.78H564.28V241.91Z" fill="#ED7777"/>
<path d="M564.28 215.05H537.42V241.91H564.28V215.05Z" fill="black"/>
<path d="M564.28 53.8701H537.42V80.7301H564.28V53.8701Z" fill="black"/>
<path d="M564.28 27.0098H537.42V53.8698H564.28V27.0098Z" fill="#4C5468"/>
<path d="M564.28 0.140137H537.42V27.0101H564.28V0.140137Z" fill="black"/>
<path d="M537.42 779.19H510.56V806.06H537.42V779.19Z" fill="black"/>
<path d="M537.42 752.33H510.56V779.19H537.42V752.33Z" fill="#721111"/>
<path d="M537.42 725.47H510.56V752.33H537.42V725.47Z" fill="#A51313"/>
<path d="M537.42 698.6H510.56V725.47H537.42V698.6Z" fill="#E01717"/>
<path d="M537.42 671.74H510.56V698.6H537.42V671.74Z" fill="#721111"/>
<path d="M537.42 644.88H510.56V671.74H537.42V644.88Z" fill="#BCBCBC"/>
<path d="M537.42 618.01H510.56V644.88H537.42V618.01Z" fill="#DDDDDD"/>
<path d="M537.42 591.15H510.56V618.01H537.42V591.15Z" fill="#DDDDDD"/>
<path d="M537.42 564.28H510.56V591.14H537.42V564.28Z" fill="#2F3648"/>
<path d="M537.42 537.42H510.56V564.28H537.42V537.42Z" fill="#2F3648"/>
<path d="M537.42 510.55H510.56V537.42H537.42V510.55Z" fill="#2F3648"/>
<path d="M537.42 483.69H510.56V510.55H537.42V483.69Z" fill="#DDDDDD"/>
<path d="M537.42 456.83H510.56V483.69H537.42V456.83Z" fill="#DDDDDD"/>
<path d="M537.42 429.96H510.56V456.83H537.42V429.96Z" fill="#DDDDDD"/>
<path d="M537.42 403.1H510.56V429.96H537.42V403.1Z" fill="#DDDDDD"/>
<path d="M537.42 376.24H510.56V403.1H537.42V376.24Z" fill="#DDDDDD"/>
<path d="M537.42 349.37H510.56V376.24H537.42V349.37Z" fill="#DDDDDD"/>
<path d="M537.42 322.51H510.56V349.37H537.42V322.51Z" fill="#BCBCBC"/>
<path d="M537.42 295.64H510.56V322.5H537.42V295.64Z" fill="#721111"/>
<path d="M537.42 268.78H510.56V295.64H537.42V268.78Z" fill="#E01717"/>
<path d="M537.42 241.91H510.56V268.78H537.42V241.91Z" fill="#ED7777"/>
<path d="M537.42 215.05H510.56V241.91H537.42V215.05Z" fill="black"/>
<path d="M537.42 53.8701H510.56V80.7301H537.42V53.8701Z" fill="black"/>
<path d="M537.42 27.0098H510.56V53.8698H537.42V27.0098Z" fill="#4C5468"/>
<path d="M537.42 0.140137H510.56V27.0101H537.42V0.140137Z" fill="black"/>
<path d="M510.56 779.19H483.69V806.06H510.56V779.19Z" fill="black"/>
<path d="M510.56 752.33H483.69V779.19H510.56V752.33Z" fill="#A51313"/>
<path d="M510.56 725.47H483.69V752.33H510.56V725.47Z" fill="#E01717"/>
<path d="M510.56 698.6H483.69V725.47H510.56V698.6Z" fill="#721111"/>
<path d="M510.56 671.74H483.69V698.6H510.56V671.74Z" fill="#BCBCBC"/>
<path d="M510.56 644.88H483.69V671.74H510.56V644.88Z" fill="#DDDDDD"/>
<path d="M510.56 618.01H483.69V644.88H510.56V618.01Z" fill="#DDDDDD"/>
<path d="M510.56 591.15H483.69V618.01H510.56V591.15Z" fill="#DDDDDD"/>
<path d="M510.56 564.28H483.69V591.14H510.56V564.28Z" fill="#2F3648"/>
<path d="M510.56 537.42H483.69V564.28H510.56V537.42Z" fill="#2F3648"/>
<path d="M510.56 510.55H483.69V537.42H510.56V510.55Z" fill="#BCBCBC"/>
<path d="M510.56 483.69H483.69V510.55H510.56V483.69Z" fill="#DDDDDD"/>
<path d="M510.56 456.83H483.69V483.69H510.56V456.83Z" fill="#DDDDDD"/>
<path d="M510.56 429.96H483.69V456.83H510.56V429.96Z" fill="#DDDDDD"/>
<path d="M510.56 403.1H483.69V429.96H510.56V403.1Z" fill="#DDDDDD"/>
<path d="M510.56 376.24H483.69V403.1H510.56V376.24Z" fill="#DDDDDD"/>
<path d="M510.56 349.37H483.69V376.24H510.56V349.37Z" fill="#DDDDDD"/>
<path d="M510.56 322.51H483.69V349.37H510.56V322.51Z" fill="#DDDDDD"/>
<path d="M510.56 295.64H483.69V322.5H510.56V295.64Z" fill="#BCBCBC"/>
<path d="M510.56 268.78H483.69V295.64H510.56V268.78Z" fill="#721111"/>
<path d="M510.56 241.91H483.69V268.78H510.56V241.91Z" fill="#E01717"/>
<path d="M510.56 215.05H483.69V241.91H510.56V215.05Z" fill="#ED7777"/>
<path d="M510.56 188.19H483.69V215.05H510.56V188.19Z" fill="black"/>
<path d="M510.56 134.46H483.69V161.32H510.56V134.46Z" fill="black"/>
<path d="M510.56 53.8701H483.69V80.7301H510.56V53.8701Z" fill="black"/>
<path d="M510.56 27.0098H483.69V53.8698H510.56V27.0098Z" fill="#4C5468"/>
<path d="M510.56 0.140137H483.69V27.0101H510.56V0.140137Z" fill="black"/>
<path d="M483.69 779.19H456.83V806.06H483.69V779.19Z" fill="black"/>
<path d="M483.69 752.33H456.83V779.19H483.69V752.33Z" fill="#A51313"/>
<path d="M483.69 725.47H456.83V752.33H483.69V725.47Z" fill="#E01717"/>
<path d="M483.69 698.6H456.83V725.47H483.69V698.6Z" fill="#721111"/>
<path d="M483.69 671.74H456.83V698.6H483.69V671.74Z" fill="#BCBCBC"/>
<path d="M483.69 644.88H456.83V671.74H483.69V644.88Z" fill="#BCBCBC"/>
<path d="M483.69 618.01H456.83V644.88H483.69V618.01Z" fill="#DDDDDD"/>
<path d="M483.69 591.15H456.83V618.01H483.69V591.15Z" fill="#DDDDDD"/>
<path d="M483.69 564.28H456.83V591.14H483.69V564.28Z" fill="#2F3648"/>
<path d="M483.69 537.42H456.83V564.28H483.69V537.42Z" fill="#DDDDDD"/>
<path d="M483.69 510.55H456.83V537.42H483.69V510.55Z" fill="#2F3648"/>
<path d="M483.69 483.69H456.83V510.55H483.69V483.69Z" fill="#BCBCBC"/>
<path d="M483.69 456.83H456.83V483.69H483.69V456.83Z" fill="#DDDDDD"/>
<path d="M483.69 429.96H456.83V456.83H483.69V429.96Z" fill="#DDDDDD"/>
<path d="M483.69 403.1H456.83V429.96H483.69V403.1Z" fill="#BCBCBC"/>
<path d="M483.69 376.24H456.83V403.1H483.69V376.24Z" fill="#DDDDDD"/>
<path d="M483.69 349.37H456.83V376.24H483.69V349.37Z" fill="#DDDDDD"/>
<path d="M483.69 322.51H456.83V349.37H483.69V322.51Z" fill="#DDDDDD"/>
<path d="M483.69 295.64H456.83V322.5H483.69V295.64Z" fill="#BCBCBC"/>
<path d="M483.69 268.78H456.83V295.64H483.69V268.78Z" fill="#721111"/>
<path d="M483.69 241.91H456.83V268.78H483.69V241.91Z" fill="#E01717"/>
<path d="M483.69 215.05H456.83V241.91H483.69V215.05Z" fill="#ED7777"/>
<path d="M483.69 188.19H456.83V215.05H483.69V188.19Z" fill="#721111"/>
<path d="M483.69 161.32H456.83V188.19H483.69V161.32Z" fill="black"/>
<path d="M483.69 134.46H456.83V161.32H483.69V134.46Z" fill="black"/>
<path d="M483.69 53.8701H456.83V80.7301H483.69V53.8701Z" fill="black"/>
<path d="M483.69 27.0098H456.83V53.8698H483.69V27.0098Z" fill="#4C5468"/>
<path d="M483.69 0.140137H456.83V27.0101H483.69V0.140137Z" fill="black"/>
<path d="M456.82 779.19H429.96V806.06H456.82V779.19Z" fill="black"/>
<path d="M456.82 752.33H429.96V779.19H456.82V752.33Z" fill="#A51313"/>
<path d="M456.82 725.47H429.96V752.33H456.82V725.47Z" fill="#E01717"/>
<path d="M456.82 698.6H429.96V725.47H456.82V698.6Z" fill="#721111"/>
<path d="M456.82 671.74H429.96V698.6H456.82V671.74Z" fill="#2F3648"/>
<path d="M456.82 644.88H429.96V671.74H456.82V644.88Z" fill="#2F3648"/>
<path d="M456.82 618.01H429.96V644.88H456.82V618.01Z" fill="#DDDDDD"/>
<path d="M456.82 591.15H429.96V618.01H456.82V591.15Z" fill="#DDDDDD"/>
<path d="M456.82 564.28H429.96V591.14H456.82V564.28Z" fill="#DDDDDD"/>
<path d="M456.82 537.42H429.96V564.28H456.82V537.42Z" fill="#DDDDDD"/>
<path d="M456.82 510.55H429.96V537.42H456.82V510.55Z" fill="#DDDDDD"/>
<path d="M456.82 483.69H429.96V510.55H456.82V483.69Z" fill="#2F3648"/>
<path d="M456.82 456.83H429.96V483.69H456.82V456.83Z" fill="#BCBCBC"/>
<path d="M456.82 429.96H429.96V456.83H456.82V429.96Z" fill="#BCBCBC"/>
<path d="M456.82 403.1H429.96V429.96H456.82V403.1Z" fill="#2F3648"/>
<path d="M456.82 376.24H429.96V403.1H456.82V376.24Z" fill="#BCBCBC"/>
<path d="M456.82 349.37H429.96V376.24H456.82V349.37Z" fill="#DDDDDD"/>
<path d="M456.82 322.51H429.96V349.37H456.82V322.51Z" fill="#BCBCBC"/>
<path d="M456.82 295.64H429.96V322.5H456.82V295.64Z" fill="#BCBCBC"/>
<path d="M456.82 268.78H429.96V295.64H456.82V268.78Z" fill="#721111"/>
<path d="M456.82 241.91H429.96V268.78H456.82V241.91Z" fill="#E01717"/>
<path d="M456.82 215.05H429.96V241.91H456.82V215.05Z" fill="#ED7777"/>
<path d="M456.82 188.19H429.96V215.05H456.82V188.19Z" fill="#721111"/>
<path d="M456.82 161.32H429.96V188.19H456.82V161.32Z" fill="#4C5468"/>
<path d="M456.82 134.46H429.96V161.32H456.82V134.46Z" fill="black"/>
<path d="M456.82 53.8701H429.96V80.7301H456.82V53.8701Z" fill="black"/>
<path d="M456.82 27.0098H429.96V53.8698H456.82V27.0098Z" fill="#4C5468"/>
<path d="M456.82 0.140137H429.96V27.0101H456.82V0.140137Z" fill="black"/>
<path d="M429.96 779.19H403.1V806.06H429.96V779.19Z" fill="black"/>
<path d="M429.96 752.33H403.1V779.19H429.96V752.33Z" fill="#A51313"/>
<path d="M429.96 725.47H403.1V752.33H429.96V725.47Z" fill="#E01717"/>
<path d="M429.96 698.6H403.1V725.47H429.96V698.6Z" fill="#721111"/>
<path d="M429.96 671.74H403.1V698.6H429.96V671.74Z" fill="#BCBCBC"/>
<path d="M429.96 644.88H403.1V671.74H429.96V644.88Z" fill="#DDDDDD"/>
<path d="M429.96 618.01H403.1V644.88H429.96V618.01Z" fill="#DDDDDD"/>
<path d="M429.96 591.15H403.1V618.01H429.96V591.15Z" fill="#DDDDDD"/>
<path d="M429.96 564.28H403.1V591.14H429.96V564.28Z" fill="#DDDDDD"/>
<path d="M429.96 537.42H403.1V564.28H429.96V537.42Z" fill="#DDDDDD"/>
<path d="M429.96 510.55H403.1V537.42H429.96V510.55Z" fill="#DDDDDD"/>
<path d="M429.96 483.69H403.1V510.55H429.96V483.69Z" fill="#2F3648"/>
<path d="M429.96 456.83H403.1V483.69H429.96V456.83Z" fill="#2F3648"/>
<path d="M429.96 429.96H403.1V456.83H429.96V429.96Z" fill="#2F3648"/>
<path d="M429.96 403.1H403.1V429.96H429.96V403.1Z" fill="#2F3648"/>
<path d="M429.96 376.24H403.1V403.1H429.96V376.24Z" fill="#2F3648"/>
<path d="M429.96 349.37H403.1V376.24H429.96V349.37Z" fill="#DDDDDD"/>
<path d="M429.96 322.51H403.1V349.37H429.96V322.51Z" fill="#2F3648"/>
<path d="M429.96 295.64H403.1V322.5H429.96V295.64Z" fill="#2F3648"/>
<path d="M429.96 268.78H403.1V295.64H429.96V268.78Z" fill="#721111"/>
<path d="M429.96 241.91H403.1V268.78H429.96V241.91Z" fill="#E01717"/>
<path d="M429.96 215.05H403.1V241.91H429.96V215.05Z" fill="#ED7777"/>
<path d="M429.96 188.19H403.1V215.05H429.96V188.19Z" fill="#721111"/>
<path d="M429.96 161.32H403.1V188.19H429.96V161.32Z" fill="#4C5468"/>
<path d="M429.96 134.46H403.1V161.32H429.96V134.46Z" fill="black"/>
<path d="M429.96 53.8701H403.1V80.7301H429.96V53.8701Z" fill="black"/>
<path d="M429.96 27.0098H403.1V53.8698H429.96V27.0098Z" fill="#4C5468"/>
<path d="M429.96 0.140137H403.1V27.0101H429.96V0.140137Z" fill="black"/>
<path d="M403.1 779.19H376.23V806.06H403.1V779.19Z" fill="black"/>
<path d="M403.1 752.33H376.23V779.19H403.1V752.33Z" fill="#A51313"/>
<path d="M403.1 725.47H376.23V752.33H403.1V725.47Z" fill="#E01717"/>
<path d="M403.1 698.6H376.23V725.47H403.1V698.6Z" fill="#721111"/>
<path d="M403.1 671.74H376.23V698.6H403.1V671.74Z" fill="#BCBCBC"/>
<path d="M403.1 644.88H376.23V671.74H403.1V644.88Z" fill="#DDDDDD"/>
<path d="M403.1 618.01H376.23V644.88H403.1V618.01Z" fill="#DDDDDD"/>
<path d="M403.1 591.15H376.23V618.01H403.1V591.15Z" fill="#DDDDDD"/>
<path d="M403.1 564.28H376.23V591.14H403.1V564.28Z" fill="#DDDDDD"/>
<path d="M403.1 537.42H376.23V564.28H403.1V537.42Z" fill="#DDDDDD"/>
<path d="M403.1 510.55H376.23V537.42H403.1V510.55Z" fill="#DDDDDD"/>
<path d="M403.1 483.69H376.23V510.55H403.1V483.69Z" fill="#DDDDDD"/>
<path d="M403.1 456.83H376.23V483.69H403.1V456.83Z" fill="#DDDDDD"/>
<path d="M403.1 429.96H376.23V456.83H403.1V429.96Z" fill="#DDDDDD"/>
<path d="M403.1 403.1H376.23V429.96H403.1V403.1Z" fill="#2F3648"/>
<path d="M403.1 376.24H376.23V403.1H403.1V376.24Z" fill="#DDDDDD"/>
<path d="M403.1 349.37H376.23V376.24H403.1V349.37Z" fill="#DDDDDD"/>
<path d="M403.1 322.51H376.23V349.37H403.1V322.51Z" fill="#DDDDDD"/>
<path d="M403.1 295.64H376.23V322.5H403.1V295.64Z" fill="#DDDDDD"/>
<path d="M403.1 268.78H376.23V295.64H403.1V268.78Z" fill="#721111"/>
<path d="M403.1 241.91H376.23V268.78H403.1V241.91Z" fill="#E01717"/>
<path d="M403.1 215.05H376.23V241.91H403.1V215.05Z" fill="#ED7777"/>
<path d="M403.1 188.19H376.23V215.05H403.1V188.19Z" fill="#721111"/>
<path d="M403.1 161.32H376.23V188.19H403.1V161.32Z" fill="black"/>
<path d="M403.1 134.46H376.23V161.32H403.1V134.46Z" fill="black"/>
<path d="M403.1 53.8701H376.23V80.7301H403.1V53.8701Z" fill="black"/>
<path d="M403.1 27.0098H376.23V53.8698H403.1V27.0098Z" fill="#8E99AF"/>
<path d="M403.1 0.140137H376.23V27.0101H403.1V0.140137Z" fill="black"/>
<path d="M376.23 779.19H349.37V806.06H376.23V779.19Z" fill="black"/>
<path d="M376.23 752.33H349.37V779.19H376.23V752.33Z" fill="#A51313"/>
<path d="M376.23 725.47H349.37V752.33H376.23V725.47Z" fill="#E01717"/>
<path d="M376.23 698.6H349.37V725.47H376.23V698.6Z" fill="#721111"/>
<path d="M376.23 671.74H349.37V698.6H376.23V671.74Z" fill="#BCBCBC"/>
<path d="M376.23 644.88H349.37V671.74H376.23V644.88Z" fill="#DDDDDD"/>
<path d="M376.23 618.01H349.37V644.88H376.23V618.01Z" fill="#DDDDDD"/>
<path d="M376.23 591.15H349.37V618.01H376.23V591.15Z" fill="#DDDDDD"/>
<path d="M376.23 564.28H349.37V591.14H376.23V564.28Z" fill="#DDDDDD"/>
<path d="M376.23 537.42H349.37V564.28H376.23V537.42Z" fill="#DDDDDD"/>
<path d="M376.23 510.55H349.37V537.42H376.23V510.55Z" fill="#DDDDDD"/>
<path d="M376.23 483.69H349.37V510.55H376.23V483.69Z" fill="#DDDDDD"/>
<path d="M376.23 456.83H349.37V483.69H376.23V456.83Z" fill="#DDDDDD"/>
<path d="M376.23 429.96H349.37V456.83H376.23V429.96Z" fill="#DDDDDD"/>
<path d="M376.23 403.1H349.37V429.96H376.23V403.1Z" fill="#DDDDDD"/>
<path d="M376.23 376.24H349.37V403.1H376.23V376.24Z" fill="#DDDDDD"/>
<path d="M376.23 349.37H349.37V376.24H376.23V349.37Z" fill="#DDDDDD"/>
<path d="M376.23 322.51H349.37V349.37H376.23V322.51Z" fill="#DDDDDD"/>
<path d="M376.23 295.64H349.37V322.5H376.23V295.64Z" fill="white"/>
<path d="M376.23 268.78H349.37V295.64H376.23V268.78Z" fill="#721111"/>
<path d="M376.23 241.91H349.37V268.78H376.23V241.91Z" fill="#E01717"/>
<path d="M376.23 215.05H349.37V241.91H376.23V215.05Z" fill="#ED7777"/>
<path d="M376.23 188.19H349.37V215.05H376.23V188.19Z" fill="black"/>
<path d="M376.23 134.46H349.37V161.32H376.23V134.46Z" fill="black"/>
<path d="M376.23 53.8701H349.37V80.7301H376.23V53.8701Z" fill="black"/>
<path d="M376.23 27.0098H349.37V53.8698H376.23V27.0098Z" fill="#4C5468"/>
<path d="M376.23 0.140137H349.37V27.0101H376.23V0.140137Z" fill="black"/>
<path d="M349.37 779.19H322.51V806.06H349.37V779.19Z" fill="black"/>
<path d="M349.37 752.33H322.51V779.19H349.37V752.33Z" fill="#721111"/>
<path d="M349.37 725.47H322.51V752.33H349.37V725.47Z" fill="#A51313"/>
<path d="M349.37 698.6H322.51V725.47H349.37V698.6Z" fill="#E01717"/>
<path d="M349.37 671.74H322.51V698.6H349.37V671.74Z" fill="#721111"/>
<path d="M349.37 644.88H322.51V671.74H349.37V644.88Z" fill="#DDDDDD"/>
<path d="M349.37 618.01H322.51V644.88H349.37V618.01Z" fill="#DDDDDD"/>
<path d="M349.37 591.15H322.51V618.01H349.37V591.15Z" fill="#DDDDDD"/>
<path d="M349.37 564.28H322.51V591.14H349.37V564.28Z" fill="#DDDDDD"/>
<path d="M349.37 537.42H322.51V564.28H349.37V537.42Z" fill="#DDDDDD"/>
<path d="M349.37 510.55H322.51V537.42H349.37V510.55Z" fill="#DDDDDD"/>
<path d="M349.37 483.69H322.51V510.55H349.37V483.69Z" fill="#DDDDDD"/>
<path d="M349.37 456.83H322.51V483.69H349.37V456.83Z" fill="#DDDDDD"/>
<path d="M349.37 429.96H322.51V456.83H349.37V429.96Z" fill="#DDDDDD"/>
<path d="M349.37 403.1H322.51V429.96H349.37V403.1Z" fill="#DDDDDD"/>
<path d="M349.37 376.24H322.51V403.1H349.37V376.24Z" fill="#DDDDDD"/>
<path d="M349.37 349.37H322.51V376.24H349.37V349.37Z" fill="#DDDDDD"/>
<path d="M349.37 322.51H322.51V349.37H349.37V322.51Z" fill="white"/>
<path d="M349.37 295.64H322.51V322.5H349.37V295.64Z" fill="#721111"/>
<path d="M349.37 268.78H322.51V295.64H349.37V268.78Z" fill="#E01717"/>
<path d="M349.37 241.91H322.51V268.78H349.37V241.91Z" fill="#ED7777"/>
<path d="M349.37 215.05H322.51V241.91H349.37V215.05Z" fill="black"/>
<path d="M349.37 53.8701H322.51V80.7301H349.37V53.8701Z" fill="black"/>
<path d="M349.37 27.0098H322.51V53.8698H349.37V27.0098Z" fill="#8E99AF"/>
<path d="M349.37 0.140137H322.51V27.0101H349.37V0.140137Z" fill="black"/>
<path d="M322.51 779.19H295.64V806.06H322.51V779.19Z" fill="black"/>
<path d="M322.51 752.33H295.64V779.19H322.51V752.33Z" fill="#721111"/>
<path d="M322.51 725.47H295.64V752.33H322.51V725.47Z" fill="#A51313"/>
<path d="M322.51 698.6H295.64V725.47H322.51V698.6Z" fill="#E01717"/>
<path d="M322.51 671.74H295.64V698.6H322.51V671.74Z" fill="#721111"/>
<path d="M322.51 644.88H295.64V671.74H322.51V644.88Z" fill="white"/>
<path d="M322.51 618.01H295.64V644.88H322.51V618.01Z" fill="#DDDDDD"/>
<path d="M322.51 591.15H295.64V618.01H322.51V591.15Z" fill="#DDDDDD"/>
<path d="M322.51 564.28H295.64V591.14H322.51V564.28Z" fill="#DDDDDD"/>
<path d="M322.51 537.42H295.64V564.28H322.51V537.42Z" fill="#DDDDDD"/>
<path d="M322.51 510.55H295.64V537.42H322.51V510.55Z" fill="#DDDDDD"/>
<path d="M322.51 483.69H295.64V510.55H322.51V483.69Z" fill="#DDDDDD"/>
<path d="M322.51 456.83H295.64V483.69H322.51V456.83Z" fill="#DDDDDD"/>
<path d="M322.51 429.96H295.64V456.83H322.51V429.96Z" fill="#DDDDDD"/>
<path d="M322.51 403.1H295.64V429.96H322.51V403.1Z" fill="#DDDDDD"/>
<path d="M322.51 376.24H295.64V403.1H322.51V376.24Z" fill="#DDDDDD"/>
<path d="M322.51 349.37H295.64V376.24H322.51V349.37Z" fill="#DDDDDD"/>
<path d="M322.51 322.51H295.64V349.37H322.51V322.51Z" fill="white"/>
<path d="M322.51 295.64H295.64V322.5H322.51V295.64Z" fill="#721111"/>
<path d="M322.51 268.78H295.64V295.64H322.51V268.78Z" fill="#E01717"/>
<path d="M322.51 241.91H295.64V268.78H322.51V241.91Z" fill="#ED7777"/>
<path d="M322.51 215.05H295.64V241.91H322.51V215.05Z" fill="black"/>
<path d="M322.51 53.8701H295.64V80.7301H322.51V53.8701Z" fill="black"/>
<path d="M322.51 27.0098H295.64V53.8698H322.51V27.0098Z" fill="#8E99AF"/>
<path d="M322.51 0.140137H295.64V27.0101H322.51V0.140137Z" fill="black"/>
<path d="M295.64 832.92H268.78V859.78H295.64V832.92Z" fill="black"/>
<path d="M295.64 806.06H268.78V832.92H295.64V806.06Z" fill="black"/>
<path d="M295.64 779.19H268.78V806.06H295.64V779.19Z" fill="#4C5468"/>
<path d="M295.64 752.33H268.78V779.19H295.64V752.33Z" fill="#4C5468"/>
<path d="M295.64 725.47H268.78V752.33H295.64V725.47Z" fill="#721111"/>
<path d="M295.64 698.6H268.78V725.47H295.64V698.6Z" fill="#E01717"/>
<path d="M295.64 671.74H268.78V698.6H295.64V671.74Z" fill="#E01717"/>
<path d="M295.64 644.88H268.78V671.74H295.64V644.88Z" fill="#721111"/>
<path d="M295.64 618.01H268.78V644.88H295.64V618.01Z" fill="white"/>
<path d="M295.64 591.15H268.78V618.01H295.64V591.15Z" fill="#DDDDDD"/>
<path d="M295.64 564.28H268.78V591.14H295.64V564.28Z" fill="#DDDDDD"/>
<path d="M295.64 537.42H268.78V564.28H295.64V537.42Z" fill="#DDDDDD"/>
<path d="M295.64 510.55H268.78V537.42H295.64V510.55Z" fill="#DDDDDD"/>
<path d="M295.64 483.69H268.78V510.55H295.64V483.69Z" fill="#DDDDDD"/>
<path d="M295.64 456.83H268.78V483.69H295.64V456.83Z" fill="#DDDDDD"/>
<path d="M295.64 429.96H268.78V456.83H295.64V429.96Z" fill="#DDDDDD"/>
<path d="M295.64 403.1H268.78V429.96H295.64V403.1Z" fill="#DDDDDD"/>
<path d="M295.64 376.24H268.78V403.1H295.64V376.24Z" fill="#DDDDDD"/>
<path d="M295.64 349.37H268.78V376.24H295.64V349.37Z" fill="white"/>
<path d="M295.64 322.51H268.78V349.37H295.64V322.51Z" fill="#721111"/>
<path d="M295.64 295.64H268.78V322.5H295.64V295.64Z" fill="#E01717"/>
<path d="M295.64 268.78H268.78V295.64H295.64V268.78Z" fill="#ED7777"/>
<path d="M295.64 241.91H268.78V268.78H295.64V241.91Z" fill="black"/>
<path d="M295.64 53.8701H268.78V80.7301H295.64V53.8701Z" fill="black"/>
<path d="M295.64 27.0098H268.78V53.8698H295.64V27.0098Z" fill="#8E99AF"/>
<path d="M295.64 0.140137H268.78V27.0101H295.64V0.140137Z" fill="black"/>
<path d="M268.78 859.79H241.92V886.66H268.78V859.79Z" fill="black"/>
<path d="M268.78 832.92H241.92V859.78H268.78V832.92Z" fill="#8E99AF"/>
<path d="M268.78 806.06H241.92V832.92H268.78V806.06Z" fill="#2F3648"/>
<path d="M268.78 779.19H241.92V806.06H268.78V779.19Z" fill="#2F3648"/>
<path d="M268.78 752.33H241.92V779.19H268.78V752.33Z" fill="#4C5468"/>
<path d="M268.78 725.47H241.92V752.33H268.78V725.47Z" fill="#721111"/>
<path d="M268.78 698.6H241.92V725.47H268.78V698.6Z" fill="#E01717"/>
<path d="M268.78 671.74H241.92V698.6H268.78V671.74Z" fill="#E01717"/>
<path d="M268.78 644.88H241.92V671.74H268.78V644.88Z" fill="#E01717"/>
<path d="M268.78 618.01H241.92V644.88H268.78V618.01Z" fill="#721111"/>
<path d="M268.78 591.15H241.92V618.01H268.78V591.15Z" fill="white"/>
<path d="M268.78 564.28H241.92V591.14H268.78V564.28Z" fill="white"/>
<path d="M268.78 537.42H241.92V564.28H268.78V537.42Z" fill="#DDDDDD"/>
<path d="M268.78 510.55H241.92V537.42H268.78V510.55Z" fill="#DDDDDD"/>
<path d="M268.78 483.69H241.92V510.55H268.78V483.69Z" fill="#2F3648"/>
<path d="M268.78 456.83H241.92V483.69H268.78V456.83Z" fill="#DDDDDD"/>
<path d="M268.78 429.96H241.92V456.83H268.78V429.96Z" fill="#DDDDDD"/>
<path d="M268.78 403.1H241.92V429.96H268.78V403.1Z" fill="white"/>
<path d="M268.78 376.24H241.92V403.1H268.78V376.24Z" fill="white"/>
<path d="M268.78 349.37H241.92V376.24H268.78V349.37Z" fill="#721111"/>
<path d="M268.78 322.51H241.92V349.37H268.78V322.51Z" fill="#E01717"/>
<path d="M268.78 295.64H241.92V322.5H268.78V295.64Z" fill="#E01717"/>
<path d="M268.78 268.78H241.92V295.64H268.78V268.78Z" fill="#ED7777"/>
<path d="M268.78 241.91H241.92V268.78H268.78V241.91Z" fill="black"/>
<path d="M268.78 161.32H241.92V188.19H268.78V161.32Z" fill="black"/>
<path d="M268.78 134.46H241.92V161.32H268.78V134.46Z" fill="black"/>
<path d="M268.78 107.6H241.92V134.46H268.78V107.6Z" fill="black"/>
<path d="M268.78 53.8701H241.92V80.7301H268.78V53.8701Z" fill="black"/>
<path d="M268.78 27.0098H241.92V53.8698H268.78V27.0098Z" fill="#8E99AF"/>
<path d="M268.78 0.140137H241.92V27.0101H268.78V0.140137Z" fill="black"/>
<path d="M241.92 859.79H215.05V886.66H241.92V859.79Z" fill="black"/>
<path d="M241.92 832.92H215.05V859.78H241.92V832.92Z" fill="#8E99AF"/>
<path d="M241.92 806.06H215.05V832.92H241.92V806.06Z" fill="#8E99AF"/>
<path d="M241.92 779.19H215.05V806.06H241.92V779.19Z" fill="#8E99AF"/>
<path d="M241.92 752.33H215.05V779.19H241.92V752.33Z" fill="#8E99AF"/>
<path d="M241.92 725.47H215.05V752.33H241.92V725.47Z" fill="black"/>
<path d="M241.92 698.6H215.05V725.47H241.92V698.6Z" fill="black"/>
<path d="M241.92 671.74H215.05V698.6H241.92V671.74Z" fill="#ED7777"/>
<path d="M241.92 644.88H215.05V671.74H241.92V644.88Z" fill="#E01717"/>
<path d="M241.92 618.01H215.05V644.88H241.92V618.01Z" fill="#E01717"/>
<path d="M241.92 591.15H215.05V618.01H241.92V591.15Z" fill="#721111"/>
<path d="M241.92 564.28H215.05V591.14H241.92V564.28Z" fill="#721111"/>
<path d="M241.92 537.42H215.05V564.28H241.92V537.42Z" fill="white"/>
<path d="M241.92 510.55H215.05V537.42H241.92V510.55Z" fill="white"/>
<path d="M241.92 483.69H215.05V510.55H241.92V483.69Z" fill="#2F3648"/>
<path d="M241.92 456.83H215.05V483.69H241.92V456.83Z" fill="white"/>
<path d="M241.92 429.96H215.05V456.83H241.92V429.96Z" fill="white"/>
<path d="M241.92 403.1H215.05V429.96H241.92V403.1Z" fill="#721111"/>
<path d="M241.92 376.24H215.05V403.1H241.92V376.24Z" fill="#721111"/>
<path d="M241.92 349.37H215.05V376.24H241.92V349.37Z" fill="#E01717"/>
<path d="M241.92 322.51H215.05V349.37H241.92V322.51Z" fill="#E01717"/>
<path d="M241.92 295.64H215.05V322.5H241.92V295.64Z" fill="#ED7777"/>
<path d="M241.92 268.78H215.05V295.64H241.92V268.78Z" fill="black"/>
<path d="M241.92 188.19H215.05V215.05H241.92V188.19Z" fill="black"/>
<path d="M241.92 161.32H215.05V188.19H241.92V161.32Z" fill="#E8E325"/>
<path d="M241.92 134.46H215.05V161.32H241.92V134.46Z" fill="#E8E325"/>
<path d="M241.92 107.6H215.05V134.46H241.92V107.6Z" fill="black"/>
<path d="M241.92 53.8701H215.05V80.7301H241.92V53.8701Z" fill="black"/>
<path d="M241.92 27.0098H215.05V53.8698H241.92V27.0098Z" fill="#8E99AF"/>
<path d="M241.92 0.140137H215.05V27.0101H241.92V0.140137Z" fill="black"/>
<path d="M215.05 859.79H188.19V886.66H215.05V859.79Z" fill="black"/>
<path d="M215.05 832.92H188.19V859.78H215.05V832.92Z" fill="black"/>
<path d="M215.05 806.06H188.19V832.92H215.05V806.06Z" fill="black"/>
<path d="M215.05 779.19H188.19V806.06H215.05V779.19Z" fill="black"/>
<path d="M215.05 752.33H188.19V779.19H215.05V752.33Z" fill="black"/>
<path d="M215.05 671.74H188.19V698.6H215.05V671.74Z" fill="black"/>
<path d="M215.05 644.88H188.19V671.74H215.05V644.88Z" fill="#ED7777"/>
<path d="M215.05 618.01H188.19V644.88H215.05V618.01Z" fill="#ED7777"/>
<path d="M215.05 591.15H188.19V618.01H215.05V591.15Z" fill="#E01717"/>
<path d="M215.05 564.28H188.19V591.14H215.05V564.28Z" fill="#E01717"/>
<path d="M215.05 537.42H188.19V564.28H215.05V537.42Z" fill="#721111"/>
<path d="M215.05 510.55H188.19V537.42H215.05V510.55Z" fill="#721111"/>
<path d="M215.05 483.69H188.19V510.55H215.05V483.69Z" fill="#721111"/>
<path d="M215.05 456.83H188.19V483.69H215.05V456.83Z" fill="#721111"/>
<path d="M215.05 429.96H188.19V456.83H215.05V429.96Z" fill="#721111"/>
<path d="M215.05 403.1H188.19V429.96H215.05V403.1Z" fill="#E01717"/>
<path d="M215.05 376.24H188.19V403.1H215.05V376.24Z" fill="#E01717"/>
<path d="M215.05 349.37H188.19V376.24H215.05V349.37Z" fill="#ED7777"/>
<path d="M215.05 322.51H188.19V349.37H215.05V322.51Z" fill="#ED7777"/>
<path d="M215.05 295.64H188.19V322.5H215.05V295.64Z" fill="black"/>
<path d="M215.05 241.91H188.19V268.78H215.05V241.91Z" fill="black"/>
<path d="M215.05 215.05H188.19V241.91H215.05V215.05Z" fill="black"/>
<path d="M215.05 188.19H188.19V215.05H215.05V188.19Z" fill="#E8E325"/>
<path d="M215.05 161.32H188.19V188.19H215.05V161.32Z" fill="#E8E325"/>
<path d="M215.05 134.46H188.19V161.32H215.05V134.46Z" fill="#E8E325"/>
<path d="M215.05 107.6H188.19V134.46H215.05V107.6Z" fill="#E59828"/>
<path d="M215.05 80.73H188.19V107.6H215.05V80.73Z" fill="black"/>
<path d="M215.05 53.8701H188.19V80.7301H215.05V53.8701Z" fill="#8E99AF"/>
<path d="M215.05 27.0098H188.19V53.8698H215.05V27.0098Z" fill="#8E99AF"/>
<path d="M215.05 0.140137H188.19V27.0101H215.05V0.140137Z" fill="black"/>
<path d="M188.18 644.88H161.32V671.74H188.18V644.88Z" fill="black"/>
<path d="M188.18 618.01H161.32V644.88H188.18V618.01Z" fill="black"/>
<path d="M188.18 591.15H161.32V618.01H188.18V591.15Z" fill="#ED7777"/>
<path d="M188.18 564.28H161.32V591.14H188.18V564.28Z" fill="#ED7777"/>
<path d="M188.18 537.42H161.32V564.28H188.18V537.42Z" fill="#E01717"/>
<path d="M188.18 510.55H161.32V537.42H188.18V510.55Z" fill="#E01717"/>
<path d="M188.18 483.69H161.32V510.55H188.18V483.69Z" fill="#E01717"/>
<path d="M188.18 456.83H161.32V483.69H188.18V456.83Z" fill="#E01717"/>
<path d="M188.18 429.96H161.32V456.83H188.18V429.96Z" fill="#E01717"/>
<path d="M188.18 403.1H161.32V429.96H188.18V403.1Z" fill="#ED7777"/>
<path d="M188.18 376.24H161.32V403.1H188.18V376.24Z" fill="#ED7777"/>
<path d="M188.18 349.37H161.32V376.24H188.18V349.37Z" fill="black"/>
<path d="M188.18 322.51H161.32V349.37H188.18V322.51Z" fill="black"/>
<path d="M188.18 241.91H161.32V268.78H188.18V241.91Z" fill="black"/>
<path d="M188.18 215.05H161.32V241.91H188.18V215.05Z" fill="#E8E325"/>
<path d="M188.18 188.19H161.32V215.05H188.18V188.19Z" fill="#E8E325"/>
<path d="M188.18 161.32H161.32V188.19H188.18V161.32Z" fill="#E8E325"/>
<path d="M188.18 134.46H161.32V161.32H188.18V134.46Z" fill="#E8E325"/>
<path d="M188.18 107.6H161.32V134.46H188.18V107.6Z" fill="#E59828"/>
<path d="M188.18 80.73H161.32V107.6H188.18V80.73Z" fill="#8E99AF"/>
<path d="M188.18 53.8701H161.32V80.7301H188.18V53.8701Z" fill="#8E99AF"/>
<path d="M188.18 27.0098H161.32V53.8698H188.18V27.0098Z" fill="black"/>
<path d="M161.32 591.15H134.46V618.01H161.32V591.15Z" fill="black"/>
<path d="M161.32 564.28H134.46V591.14H161.32V564.28Z" fill="black"/>
<path d="M161.32 537.42H134.46V564.28H161.32V537.42Z" fill="#ED7777"/>
<path d="M161.32 510.55H134.46V537.42H161.32V510.55Z" fill="#ED7777"/>
<path d="M161.32 483.69H134.46V510.55H161.32V483.69Z" fill="#ED7777"/>
<path d="M161.32 456.83H134.46V483.69H161.32V456.83Z" fill="#ED7777"/>
<path d="M161.32 429.96H134.46V456.83H161.32V429.96Z" fill="#ED7777"/>
<path d="M161.32 403.1H134.46V429.96H161.32V403.1Z" fill="black"/>
<path d="M161.32 376.24H134.46V403.1H161.32V376.24Z" fill="black"/>
<path d="M161.32 268.78H134.46V295.64H161.32V268.78Z" fill="black"/>
<path d="M161.32 241.91H134.46V268.78H161.32V241.91Z" fill="#E8E325"/>
<path d="M161.32 215.05H134.46V241.91H161.32V215.05Z" fill="#E8E325"/>
<path d="M161.32 188.19H134.46V215.05H161.32V188.19Z" fill="#E8E325"/>
<path d="M161.32 161.32H134.46V188.19H161.32V161.32Z" fill="#E8E325"/>
<path d="M161.32 134.46H134.46V161.32H161.32V134.46Z" fill="#E59828"/>
<path d="M161.32 107.6H134.46V134.46H161.32V107.6Z" fill="black"/>
<path d="M161.32 80.73H134.46V107.6H161.32V80.73Z" fill="black"/>
<path d="M161.32 53.8701H134.46V80.7301H161.32V53.8701Z" fill="black"/>
<path d="M134.46 537.42H107.59V564.28H134.46V537.42Z" fill="black"/>
<path d="M134.46 510.55H107.59V537.42H134.46V510.55Z" fill="black"/>
<path d="M134.46 483.69H107.59V510.55H134.46V483.69Z" fill="black"/>
<path d="M134.46 456.83H107.59V483.69H134.46V456.83Z" fill="black"/>
<path d="M134.46 429.96H107.59V456.83H134.46V429.96Z" fill="black"/>
<path d="M134.46 295.64H107.59V322.5H134.46V295.64Z" fill="black"/>
<path d="M134.46 268.78H107.59V295.64H134.46V268.78Z" fill="#E8E325"/>
<path d="M134.46 241.91H107.59V268.78H134.46V241.91Z" fill="#E8E325"/>
<path d="M134.46 215.05H107.59V241.91H134.46V215.05Z" fill="#E8E325"/>
<path d="M134.46 188.19H107.59V215.05H134.46V188.19Z" fill="#E8E325"/>
<path d="M134.46 161.32H107.59V188.19H134.46V161.32Z" fill="#E8E325"/>
<path d="M134.46 134.46H107.59V161.32H134.46V134.46Z" fill="black"/>
<path d="M107.59 295.64H80.73V322.5H107.59V295.64Z" fill="black"/>
<path d="M107.59 268.78H80.73V295.64H107.59V268.78Z" fill="#E8E325"/>
<path d="M107.59 241.91H80.73V268.78H107.59V241.91Z" fill="#E8E325"/>
<path d="M107.59 215.05H80.73V241.91H107.59V215.05Z" fill="#E8E325"/>
<path d="M107.59 188.19H80.73V215.05H107.59V188.19Z" fill="black"/>
<path d="M107.59 161.32H80.73V188.19H107.59V161.32Z" fill="black"/>
<path d="M80.73 295.64H53.87V322.5H80.73V295.64Z" fill="black"/>
<path d="M80.73 268.78H53.87V295.64H80.73V268.78Z" fill="black"/>
<path d="M80.73 241.91H53.87V268.78H80.73V241.91Z" fill="black"/>
<path d="M80.73 215.05H53.87V241.91H80.73V215.05Z" fill="black"/>
</g>
<defs>
<clipPath id="clip0_4025_2">
<rect width="886.79" height="886.79" fill="white"/>
</clipPath>
</defs>
</svg>
