<svg preserveAspectRatio="none" width="100%" height="100%" overflow="visible" style="display: block;" viewBox="0 0 21.422 32" fill="none" xmlns="http://www.w3.org/2000/svg">
<g id="Group 2">
<path id="Vector" d="M7.32229 0.0128746C8.26997 -0.00966716 9.26571 0.00421134 10.2171 0.00437957L14.3225 0.00771607C14.3238 0.478822 14.3207 0.957358 14.327 1.42774C15.2625 1.41478 16.1982 1.41377 17.1337 1.42476C17.1358 1.91053 17.1218 2.47021 17.1383 2.94768C17.5892 2.95343 18.1634 2.9751 18.6068 2.95979C18.5984 3.45232 18.5975 3.94496 18.6037 4.43751L20.0501 4.44214C20.0543 4.92135 20.035 5.53421 20.0605 5.99752L21.422 6.00464L21.4209 15.5317L20.0703 15.5396C20.0235 16.4395 20.0566 17.5249 20.0493 18.4438L18.6031 18.4472C18.5984 19.2921 18.6441 20.4012 18.5939 21.2176C18.1218 21.2173 17.6075 21.2079 17.139 21.2222L17.1335 24.0469C16.698 24.0399 16.2491 24.0489 15.8126 24.0519C15.8073 24.9643 15.8342 25.9907 15.8011 26.8898L14.3273 26.8949C14.3203 27.7304 14.319 28.5662 14.3233 29.4017C13.8429 29.3969 13.3787 29.3913 12.8983 29.4059V31.9915C11.504 32.006 10.1094 31.9985 8.715 31.9943C8.68865 31.7851 8.6988 31.2889 8.69846 31.0688L8.69725 29.3997L7.32434 29.3938L7.32187 26.9423L7.32344 26.8977C6.82704 26.8907 6.32179 26.8943 5.82464 26.8935C5.81281 25.9472 5.83111 24.9898 5.82304 24.0402C5.35062 24.0592 4.82517 24.0522 4.34818 24.0539L4.34602 21.2231C3.85139 21.2178 3.35671 21.2166 2.86202 21.2193L2.85986 18.4465L1.38368 18.4481C1.36476 17.499 1.37443 16.4856 1.38189 15.5345L0.00128942 15.5345L0 6.00411L1.37768 5.99216L1.38015 4.44365C1.87366 4.43703 2.36722 4.43398 2.86079 4.43443L2.86168 2.95631L4.35081 2.9527C4.34683 2.44054 4.34672 1.92834 4.35048 1.41618C5.21287 1.4496 6.45536 1.43951 7.32288 1.41206L7.32229 0.0128746Z" fill="var(--fill-0, #E5482E)"/>
<path id="Vector_2" d="M7.32229 0.0128746C8.26997 -0.00966716 9.26571 0.00421134 10.2171 0.00437957L14.3225 0.00771607C14.3238 0.478822 14.3207 0.957358 14.327 1.42774C15.2625 1.41478 16.1982 1.41377 17.1337 1.42476C17.1358 1.91053 17.1218 2.47021 17.1383 2.94768C17.5892 2.95343 18.1634 2.9751 18.6068 2.95979C18.5984 3.45232 18.5975 3.94496 18.6037 4.43751L20.0501 4.44214C20.0543 4.92135 20.035 5.53421 20.0605 5.99752L21.422 6.00464L21.4209 15.5317L20.0703 15.5396C20.0235 16.4395 20.0566 17.5249 20.0493 18.4438L18.6031 18.4472C18.5984 19.2921 18.6441 20.4012 18.5939 21.2176C18.1218 21.2173 17.6075 21.2079 17.139 21.2222L17.1335 24.0469C16.698 24.0399 16.2491 24.0489 15.8126 24.0519C15.8073 24.9643 15.8342 25.9907 15.8011 26.8898L14.3273 26.8949C14.3203 27.7304 14.319 28.5662 14.3233 29.4017C13.8429 29.3969 13.3787 29.3913 12.8983 29.4059V31.9915C12.4403 31.9962 11.9824 31.9985 11.5244 31.9979L10.0981 31.9985L8.715 31.9943C8.68865 31.7851 8.6988 31.2889 8.69846 31.0688L8.69725 29.3997C8.6993 29.0711 8.67684 28.4683 8.71363 28.1686C9.14027 28.195 9.69594 28.1681 10.1402 28.1731C10.1999 28.2628 10.1637 29.1636 10.1637 29.3431L11.454 29.3442C11.4532 29.1788 11.4237 28.3781 11.4921 28.3021C11.5112 27.7901 11.4941 27.1685 11.4939 26.6496L11.4925 24.0259L11.5251 23.981C11.665 23.9561 12.6389 23.9883 12.8558 23.9891C12.8558 23.3281 12.8202 22.6926 12.8779 22.0224C12.8996 21.771 12.8744 21.4549 12.8889 21.1862C13.2023 21.1845 14.0713 21.2202 14.3251 21.1471C14.3292 20.6985 14.3275 20.2498 14.3199 19.8013C14.7782 19.791 15.307 19.8035 15.7625 19.8225C15.7554 19.4674 15.7473 19.0182 15.7796 18.6684L15.7842 18.427C15.8978 18.4468 16.9216 18.4242 17.1065 18.4225C17.0909 18.1187 17.1667 17.3396 17.0929 17.1142C17.0449 17.091 17.0077 17.0914 16.9549 17.0861C17.131 16.9452 18.2743 16.9864 18.5557 16.9857C18.5594 16.0025 18.5437 14.9897 18.565 14.01C18.7834 14.0148 19.9355 14.0406 20.0496 13.9651L20.0538 7.46815C19.7184 7.52049 18.994 7.46865 18.5874 7.49831C18.5916 7.20463 18.5964 6.92678 18.5838 6.63337C18.5801 6.42584 18.5729 6.2182 18.5883 6.01129L18.5855 5.98061C18.5964 5.48239 18.5897 4.95642 18.5916 4.4559C18.199 4.4383 17.7531 4.45229 17.3562 4.45635L17.1302 4.43743C16.1898 4.43193 15.2495 4.43818 14.3094 4.45613C14.3393 4.11366 14.3249 3.48378 14.3266 3.11503L14.2792 3.00527C14.1614 2.95138 11.5664 3.00712 11.1725 2.9721C10.6898 2.96896 10.1744 2.99697 9.69568 2.97322C9.42888 2.97359 9.13379 2.97995 8.87044 2.95999L8.71478 2.99341C8.61729 3.27526 8.80197 4.26545 8.66563 4.43729C8.41181 4.49535 7.64654 4.43961 7.32139 4.46288C7.31332 4.9768 7.31178 5.49081 7.31677 6.00475L5.81194 6.00419C5.80947 6.42744 5.82907 7.09814 5.80252 7.49604L5.8081 8.93911C5.50075 8.94418 4.59067 8.9187 4.34633 8.95212L4.34134 9.33788C4.3038 9.61259 4.31697 10.0714 4.31723 10.3645C3.84525 10.3259 3.29954 10.3758 2.85947 10.3336C2.85535 10.7769 2.85462 11.2202 2.85728 11.6635C2.46092 11.6512 1.73675 11.6857 1.39347 11.6402L1.38867 11.7079L1.38489 12.7713L1.38189 15.5345L0.00128942 15.5345L0 6.00411L1.37768 5.99216L1.38015 4.44365C1.87366 4.43703 2.36722 4.43398 2.86079 4.43443L2.86168 2.95631L4.35081 2.9527C4.34683 2.44054 4.34672 1.92834 4.35048 1.41618C5.21287 1.4496 6.45536 1.43951 7.32288 1.41206L7.32229 0.0128746Z" fill="var(--fill-0, #411905)"/>
<path id="Vector_3" d="M18.565 14.01C18.7834 14.0149 19.9355 14.0406 20.0496 13.9651C20.0535 14.4856 20.0526 15.0062 20.0468 15.5267C19.5612 15.5309 19.0756 15.5324 18.5902 15.5313C18.5888 16.4497 18.5586 17.5357 18.5891 18.4401C18.0999 18.3999 17.6073 18.4805 17.1207 18.4324C17.1335 19.3501 17.1201 20.2782 17.1314 21.2031C16.7332 21.2002 16.1659 21.2155 15.7796 21.1914C15.7893 21.6546 15.7914 22.1178 15.7863 22.5811L15.7378 22.6511C15.3537 22.6558 14.6875 22.6585 14.3238 22.6464C14.322 22.8517 14.2896 24.002 14.3225 24.0769C14.3335 24.3357 14.3299 24.5639 14.3247 24.8227C14.3499 25.4465 14.3325 26.2587 14.3247 26.8885C13.8531 26.8882 13.3671 26.8817 12.8967 26.8887C12.8936 27.7156 12.8867 28.5696 12.8991 29.3958C12.6275 29.3913 11.7887 29.3672 11.5466 29.402C11.514 29.4709 11.5157 29.4676 11.5138 29.5444L11.4895 29.5506C11.489 29.871 11.5025 30.3617 11.4821 30.6704C11.2536 30.6684 10.2766 30.704 10.1213 30.6662C10.109 30.2456 10.1261 29.818 10.115 29.393C9.65627 29.3913 9.17249 29.3821 8.71576 29.3952C8.71848 30.1332 8.76012 31.2861 8.71501 31.9943C8.68865 31.7851 8.6988 31.2889 8.69846 31.0688L8.69726 29.3997C8.69931 29.0711 8.67685 28.4683 8.71363 28.1686C9.14027 28.195 9.69594 28.1681 10.1402 28.1731C10.1999 28.2628 10.1637 29.1637 10.1637 29.3431L11.454 29.3442C11.4532 29.1788 11.4237 28.3781 11.4921 28.3021C11.5112 27.7901 11.4941 27.1686 11.4939 26.6496L11.4926 24.0259L11.5251 23.981C11.665 23.9561 12.6389 23.9883 12.8558 23.9892C12.8558 23.3281 12.8202 22.6926 12.8779 22.0224C12.8996 21.771 12.8744 21.4549 12.8889 21.1862C13.2023 21.1845 14.0713 21.2202 14.3251 21.1471C14.3292 20.6985 14.3275 20.2499 14.3199 19.8013C14.7782 19.7911 15.307 19.8035 15.7625 19.8225C15.7554 19.4674 15.7473 19.0182 15.7796 18.6684L15.7842 18.427C15.8978 18.4468 16.9216 18.4242 17.1065 18.4225C17.0909 18.1188 17.1667 17.3397 17.0929 17.1142C17.0449 17.091 17.0077 17.0915 16.9549 17.0861C17.131 16.9452 18.2743 16.9864 18.5558 16.9857C18.5594 16.0025 18.5437 14.9897 18.565 14.01Z" fill="var(--fill-0, #A82219)"/>
<path id="Vector_4" d="M12.8889 21.1862C13.2023 21.1845 14.0713 21.2202 14.3251 21.1471C14.3226 21.6492 14.3253 22.1512 14.3333 22.6532C13.8893 22.6255 13.3413 22.6303 12.8893 22.6243C12.8969 23.0929 12.881 23.5851 12.8917 24.041C12.5856 24.041 11.7651 24.0606 11.4926 24.0259L11.5251 23.981C11.665 23.9561 12.6389 23.9883 12.8558 23.9892C12.8558 23.3282 12.8202 22.6926 12.8779 22.0224C12.8996 21.771 12.8744 21.4549 12.8889 21.1862Z" fill="var(--fill-0, #A82219)"/>
<path id="Vector_5" d="M12.8686 25.4246C13.2726 25.4423 13.7761 25.4518 14.1901 25.4496C14.242 25.4496 14.1931 25.4695 14.2809 25.4605C14.3437 25.2968 14.2804 25.0111 14.3247 24.8227C14.3499 25.4465 14.3325 26.2587 14.3247 26.8885C13.8531 26.8882 13.3671 26.8817 12.8967 26.8887C12.8349 26.7314 12.8687 25.6562 12.8686 25.4246Z" fill="var(--fill-0, #A82219)"/>
<path id="Vector_6" d="M7.34086 2.66237C7.34512 2.74452 7.34064 2.88324 7.38188 2.94571C7.69988 3.03478 8.64279 2.9172 8.87045 2.96001L8.71479 2.99343C8.6173 3.27529 8.80198 4.26547 8.66564 4.43731C8.41182 4.49537 7.64655 4.43964 7.3214 4.46291C7.31333 4.97683 7.31179 5.49083 7.31678 6.00477L5.81195 6.00421C5.80948 6.42746 5.82908 7.09816 5.80253 7.49606L5.8081 8.93913C5.50076 8.94421 4.59068 8.91872 4.34634 8.95214L4.34135 9.3379C4.30381 9.61261 4.31698 10.0714 4.31724 10.3645C3.84526 10.326 3.29955 10.3758 2.85948 10.3337C2.87523 9.89329 2.85995 9.35422 2.85945 8.90613L2.86604 6.00211C2.865 5.60553 2.84411 4.82369 2.88011 4.4605C3.37012 4.45015 3.86026 4.44886 4.35032 4.45663L4.35523 3.52061C4.34942 3.35917 4.35988 3.12955 4.36207 2.9627C4.75338 2.9495 5.14497 2.94652 5.53643 2.95376L7.31899 2.94784L7.34086 2.66237Z" fill="var(--fill-0, #E5482E)"/>
<path id="Vector_7" d="M5.53643 2.95375L7.319 2.94783C7.31863 3.01554 7.32211 3.15191 7.31569 3.21357C7.26262 3.64601 7.29747 4.00867 7.28861 4.43189L5.9495 4.45819C5.72207 4.46329 5.34214 4.48056 5.12185 4.45617L4.3743 4.45802C4.37786 4.21791 4.39437 3.73943 4.35523 3.5206C4.34943 3.35916 4.35989 3.12954 4.36207 2.96269C4.75339 2.94949 5.14498 2.94651 5.53643 2.95375Z" fill="var(--fill-0, #E5482E)"/>
<path id="Vector_8" d="M4.36207 2.9627C4.75339 2.94949 5.14498 2.94652 5.53643 2.95376C5.60201 2.96388 5.75386 2.97739 5.79776 3.01364C5.83469 3.43125 5.79872 4.00122 5.80971 4.44331C5.63288 4.43924 5.28808 4.42965 5.12185 4.45618L4.3743 4.45803C4.37786 4.21792 4.39437 3.73944 4.35523 3.52061C4.34943 3.35917 4.35989 3.12955 4.36207 2.9627Z" fill="var(--fill-0, #F16F4B)"/>
<path id="Vector_9" d="M2.88012 4.46045C3.37012 4.45011 3.86026 4.44882 4.35032 4.45659C4.34469 4.97132 4.34337 5.48608 4.34643 6.00084C3.91253 5.99859 3.30496 5.98101 2.88303 6.02262C2.88819 5.74735 2.91682 4.69274 2.88012 4.46045Z" fill="var(--fill-0, #F16F4B)"/>
<path id="Vector_10" d="M1.39696 6.00124L2.86604 6.00208L2.85946 8.9061C2.85996 9.35419 2.87524 9.89326 2.85948 10.3336C2.85536 10.7769 2.85463 11.2202 2.8573 11.6635C2.46094 11.6511 1.73677 11.6857 1.39348 11.6402L1.39696 6.00124Z" fill="var(--fill-0, #F16F4B)"/>
<path id="Vector_11" d="M10.1093 1.42633L11.4906 1.43146C11.5086 1.94255 11.5173 2.45394 11.5167 2.96537C11.3831 2.95704 11.3046 2.94695 11.1725 2.9721C10.6898 2.96896 10.1744 2.99696 9.69569 2.97322C9.42889 2.97358 9.1338 2.97995 8.87045 2.95998C8.64278 2.91717 7.69987 3.03476 7.38188 2.94568C7.34063 2.88322 7.34512 2.74449 7.34086 2.66234L7.33948 1.43412L10.1093 1.42633Z" fill="var(--fill-0, #E5482E)"/>
<path id="Vector_12" d="M10.1093 1.42633L11.4906 1.43146C11.5086 1.94255 11.5173 2.45394 11.5167 2.96537C11.3831 2.95704 11.3046 2.94695 11.1725 2.9721C10.6898 2.96896 10.1744 2.99696 9.69569 2.97322C9.80049 2.95569 9.99025 2.95541 10.1034 2.95205C10.0793 2.50382 10.0949 1.87529 10.1093 1.42633Z" fill="var(--fill-0, #E5482E)"/>
<path id="Vector_13" d="M11.4906 1.43146C12.4063 1.43191 13.4201 1.45352 14.3278 1.42874C14.3274 1.65275 14.3094 2.8053 14.3333 2.96747L14.3266 3.11503L14.2792 3.00526C14.1615 2.95137 11.5664 3.00711 11.1725 2.97209C11.3046 2.94694 11.3831 2.95704 11.5167 2.96536C11.5173 2.45394 11.5086 1.94255 11.4906 1.43146Z" fill="var(--fill-0, #E5482E)"/>
<path id="Vector_14" d="M14.3334 2.96746C15.2025 2.94548 16.2653 2.9281 17.1321 2.95162C17.1307 3.44347 17.1241 3.94651 17.1302 4.43741C16.1899 4.43192 15.2496 4.43817 14.3094 4.45611C14.3394 4.11364 14.3249 3.48376 14.3266 3.11502L14.3334 2.96746Z" fill="var(--fill-0, #E5482E)"/>
<path id="Vector_15" d="M18.5883 6.01129C19.0778 6.02048 19.5749 5.98734 20.0599 6.01165C20.0636 6.49706 20.0482 6.97719 20.0538 7.46815C19.7185 7.52049 18.994 7.46865 18.5874 7.49831C18.5917 7.20463 18.5964 6.92678 18.5838 6.63337C18.5802 6.42584 18.5729 6.2182 18.5883 6.01129Z" fill="var(--fill-0, #A82219)"/>
<path id="Vector_16" d="M14.3238 22.6464C14.6875 22.6585 15.3537 22.6558 15.7378 22.651L15.7863 22.5811C15.7876 23.0632 15.7936 23.5537 15.789 24.0351C15.5453 24.0329 14.4795 23.9639 14.3262 24.0724C14.3246 24.0735 14.3237 24.0752 14.3225 24.0769C14.2896 24.002 14.322 22.8517 14.3238 22.6464Z" fill="var(--fill-0, #A82219)"/>
<path id="Vector_17" d="M1.38189 15.5345C1.87162 15.5325 2.37421 15.5243 2.86287 15.5371L2.86948 18.4436C3.34793 18.4432 3.90097 18.4306 4.37314 18.4499C4.373 18.8727 4.3555 19.3146 4.36607 19.7325C4.59676 19.8234 5.56939 19.7858 5.86824 19.783C5.86322 20.0089 5.87163 21.0509 5.8353 21.1965L5.83112 22.5491C5.86353 22.5963 5.87511 22.6347 5.93553 22.6367C6.37893 22.652 6.91206 22.622 7.35137 22.6129C7.32807 22.9252 7.37582 23.8722 7.34447 24.041L7.34016 25.4515C7.34245 25.9399 7.34694 26.4096 7.32345 26.8977C6.82705 26.8907 6.3218 26.8943 5.82464 26.8935C5.81281 25.9472 5.83112 24.9898 5.82304 24.0401C5.35062 24.0592 4.82518 24.0522 4.34818 24.0539L4.34603 21.2231C3.8514 21.2178 3.35671 21.2165 2.86203 21.2193L2.85987 18.4465L1.38369 18.448C1.36476 17.499 1.37444 16.4856 1.38189 15.5345Z" fill="var(--fill-0, #411905)"/>
<path id="Vector_18" d="M5.83112 22.5491C5.86353 22.5963 5.87511 22.6347 5.93553 22.6367C6.37894 22.652 6.91206 22.622 7.35137 22.6129C7.32807 22.9252 7.37582 23.8722 7.34448 24.041C6.97643 24.0107 6.21901 24.0345 5.83011 24.0379L5.83112 22.5491Z" fill="var(--fill-0, #A82219)"/>
<path id="Vector_19" d="M4.36608 19.7325C4.59677 19.8234 5.5694 19.7858 5.86825 19.783C5.86323 20.0089 5.87164 21.0509 5.8353 21.1965C5.35595 21.2078 4.84218 21.1989 4.36028 21.1983C4.35251 20.7289 4.36698 20.2087 4.36608 19.7325Z" fill="var(--fill-0, #A82219)"/>
<path id="Vector_20" d="M18.5586 12.6681L18.576 8.30013C18.5799 7.80239 18.5339 7.10508 18.5838 6.63339C18.5964 6.92679 18.5917 7.20464 18.5874 7.49833C18.994 7.46867 19.7185 7.52051 20.0538 7.46816L20.0496 13.9651C19.9355 14.0406 18.7834 14.0149 18.565 14.01C18.5437 14.9897 18.5594 16.0025 18.5558 16.9857C18.2743 16.9864 17.131 16.9452 16.955 17.0861C17.0077 17.0915 17.045 17.091 17.0929 17.1142C17.1667 17.3397 17.0909 18.1188 17.1065 18.4225C16.9216 18.4242 15.8979 18.4468 15.7842 18.427L15.782 18.4054L15.7748 16.9913C16.2078 16.9973 16.6605 16.9882 17.0952 16.9851C17.1049 15.9946 17.1046 15.0041 17.0944 14.0136C17.5739 14.0294 18.0759 14.0075 18.5594 14.0094C18.5619 13.5623 18.5614 13.1152 18.5586 12.6681Z" fill="var(--fill-0, #A82219)"/>
<path id="Vector_21" d="M1.39348 11.6402C1.73677 11.6857 2.46093 11.6511 2.85729 11.6635C2.86007 11.9921 2.87022 12.3531 2.8599 12.6789C2.84535 13.1351 2.8661 13.5868 2.85404 14.0356C2.37862 14.024 1.88228 14.0315 1.41254 14.0136C1.4158 13.7619 1.43896 12.9579 1.3849 12.7713L1.38869 11.7079L1.39348 11.6402Z" fill="var(--fill-0, #E5482E)"/>
<path id="Vector_22" d="M1.39347 11.6402C1.73676 11.6857 2.46093 11.6511 2.85729 11.6635C2.86006 11.9921 2.87021 12.3531 2.85989 12.6789C2.39793 12.7074 1.87778 12.6853 1.4124 12.6718C1.41425 12.4469 1.43202 11.9016 1.38868 11.7079L1.39347 11.6402Z" fill="var(--fill-0, #E5482E)"/>
<path id="Vector_23" d="M7.32188 26.9423C7.38252 26.8764 7.37655 26.8969 7.49927 26.8915C7.8933 26.8753 8.30247 26.8963 8.69519 26.8812C8.69508 27.1279 8.68238 27.9239 8.71927 28.1313L8.71364 28.1686C8.67685 28.4683 8.69931 29.0711 8.69726 29.3997L7.32435 29.3938L7.32188 26.9423Z" fill="var(--fill-0, #411905)"/>
<path id="Vector_24" d="M17.3563 4.45633C17.7531 4.45226 18.199 4.43827 18.5917 4.45588C18.5897 4.9564 18.5964 5.48237 18.5855 5.98059C18.4613 6.03072 17.3319 6.00212 17.1336 6.00237C17.1625 5.51369 17.1176 4.99994 17.1374 4.50161C17.1894 4.45445 17.2709 4.46418 17.3563 4.45633Z" fill="var(--fill-0, #E5482E)"/>
<path id="Vector_25" d="M7.34016 25.4516C7.77625 25.4493 8.2702 25.4384 8.70189 25.4574C8.7068 26.1062 8.73043 26.7466 8.73609 27.3937C8.73766 27.5745 8.7417 27.9673 8.71927 28.1313C8.68238 27.9239 8.69508 27.1279 8.69519 26.8812C8.30247 26.8963 7.8933 26.8753 7.49927 26.8915C7.37655 26.8969 7.38252 26.8764 7.32188 26.9423L7.32345 26.8977C7.34694 26.4096 7.34246 25.94 7.34016 25.4516Z" fill="var(--fill-0, #A82219)"/>
<path id="Vector_26" d="M14.3168 18.4255C14.6744 18.4115 15.4752 18.4625 15.782 18.4054L15.7842 18.4269L15.7796 18.6684C15.7473 19.0182 15.7554 19.4673 15.7625 19.8225C15.307 19.8034 14.7782 19.791 14.3199 19.8013C14.2949 19.5694 14.3164 18.7026 14.3168 18.4255Z" fill="var(--fill-0, #A82219)"/>
<path id="Vector_27" d="M18.5586 12.6681C18.5614 13.1152 18.5619 13.5623 18.5594 14.0094C18.0759 14.0076 17.5739 14.0294 17.0944 14.0136C17.0708 13.6615 17.0895 13.0399 17.0894 12.668C17.5791 12.6733 18.0688 12.6734 18.5586 12.6681Z" fill="var(--fill-0, #A82219)"/>
<path id="Vector_28" d="M4.34135 9.33786C4.3497 10.1165 4.31415 10.8881 4.32323 11.6627C3.86287 11.6713 3.31598 11.6834 2.85729 11.6635C2.85463 11.2202 2.85536 10.7769 2.85948 10.3336C3.29955 10.3758 3.84526 10.3259 4.31724 10.3645C4.31698 10.0713 4.3038 9.61257 4.34135 9.33786Z" fill="var(--fill-0, #E5482E)"/>
<path id="Vector_29" d="M8.70422 6.00616C10.0865 5.99761 11.5205 5.98612 12.9016 6.00305C12.898 6.50166 12.897 7.00027 12.8985 7.49891C13.3814 7.49291 13.8644 7.49033 14.3473 7.49117C14.3392 7.96225 14.3206 8.48066 14.3363 8.94876C14.8256 8.94663 15.3187 8.9415 15.8075 8.94523C15.7913 10.6046 15.8424 12.3909 15.7938 14.0259C15.5642 14.0301 14.4966 14.0604 14.3438 14.0025L14.3345 14.0188C14.3743 14.3185 14.3349 15.1453 14.3482 15.5279L12.9011 15.534C12.9003 16.0132 12.8928 16.5123 12.9014 16.9899L8.69373 16.9971C8.45433 17.0382 7.58837 17.0357 7.31319 17.0354C7.32216 16.5563 7.30769 16.0262 7.30439 15.5441C6.81741 15.5307 6.2911 15.5393 5.80115 15.5388C5.80794 15.0044 5.75957 14.0906 5.80788 13.5935C5.8512 12.0911 5.80278 10.4649 5.81613 8.94764C6.32312 8.94313 6.83014 8.94248 7.33713 8.94568C7.32982 8.48066 7.31226 7.95521 7.32993 7.49302L8.702 7.49098C8.69713 6.99604 8.69788 6.50107 8.70422 6.00616Z" fill="var(--fill-0, #F9E7C9)"/>
<path id="Vector_30" d="M8.70422 6.00616C10.0865 5.99761 11.5205 5.98612 12.9016 6.00305C12.898 6.50166 12.897 7.00027 12.8985 7.49891C13.3814 7.49291 13.8643 7.49033 14.3473 7.49117C14.3392 7.96225 14.3206 8.48066 14.3363 8.94876C14.8256 8.94663 15.3187 8.9415 15.8075 8.94523C15.7913 10.6046 15.8424 12.3909 15.7938 14.0259C15.5641 14.0301 14.4966 14.0604 14.3438 14.0025C14.3526 12.3883 14.3815 10.5509 14.3344 8.95378C14.0127 8.98078 13.2408 8.95658 12.8962 8.95092L12.8976 7.49639C12.6033 7.52358 11.9268 7.5016 11.5994 7.50107C10.6392 7.49347 9.67906 7.49695 8.71899 7.5115C8.70963 7.99093 8.70621 8.47048 8.70873 8.95C8.25644 8.96497 7.79747 8.95574 7.33764 8.97105C7.30881 9.53359 7.32586 10.2127 7.32628 10.7827L7.33172 13.814C7.32889 13.9118 7.33054 13.9188 7.29533 14.0082C7.03293 14.0481 6.12683 14.027 5.82571 14.023C5.82462 13.8743 5.8175 13.7421 5.80788 13.5935C5.8512 12.0911 5.80278 10.4649 5.81612 8.94764C6.32312 8.94313 6.83014 8.94248 7.33713 8.94568C7.32981 8.48066 7.31226 7.95521 7.32992 7.49302L8.702 7.49098C8.69712 6.99604 8.69788 6.50107 8.70422 6.00616Z" fill="var(--fill-0, #411905)"/>
<path id="Vector_31" d="M5.80788 13.5936C5.8175 13.7421 5.82462 13.8743 5.82571 14.023C6.12683 14.027 7.03293 14.0481 7.29533 14.0082C7.33054 13.9188 7.32889 13.9118 7.33172 13.814C7.33304 13.88 7.33697 13.9598 7.3354 14.0243L8.70509 14.0323C8.70803 14.5159 8.69575 15.0482 8.71016 15.5251C10.0057 15.5501 11.6041 15.5579 12.895 15.5185C12.8962 15.0251 12.8924 14.5221 12.8998 14.0294C13.3406 14.0431 13.8936 14.0354 14.3345 14.0188C14.3743 14.3185 14.3349 15.1454 14.3482 15.528L12.9011 15.534C12.9003 16.0133 12.8928 16.5124 12.9014 16.9899L8.69373 16.9971C8.45433 17.0382 7.58837 17.0357 7.31319 17.0354C7.32216 16.5564 7.30769 16.0262 7.30439 15.5441C6.81741 15.5307 6.2911 15.5394 5.80115 15.5388C5.80794 15.0044 5.75957 14.0906 5.80788 13.5936Z" fill="var(--fill-0, #411905)"/>
<path id="Vector_32" d="M5.80788 13.5936C5.8175 13.7421 5.82462 13.8743 5.82571 14.023C6.12683 14.027 7.03293 14.0481 7.29533 14.0082C7.33054 13.9188 7.32889 13.9118 7.33172 13.814C7.33304 13.88 7.33697 13.9598 7.3354 14.0243C7.33772 14.5252 7.33083 15.0261 7.31471 15.5268C7.77496 15.5168 8.23541 15.5198 8.69553 15.5358L8.69373 16.9971C8.45433 17.0382 7.58837 17.0357 7.31319 17.0354C7.32216 16.5564 7.30769 16.0262 7.30439 15.5441C6.81741 15.5307 6.2911 15.5394 5.80115 15.5388C5.80794 15.0044 5.75957 14.0906 5.80788 13.5936Z" fill="var(--fill-0, #A82219)"/>
</g>
</svg>
