<svg preserveAspectRatio="none" width="100%" height="100%" overflow="visible" style="display: block;" viewBox="0 0 31.3846 24.0001" fill="none" xmlns="http://www.w3.org/2000/svg">
<g id="Check">
<path id="Union" d="M29.5385 5.53908H27.6923V7.38523H25.8462V9.23139H24V11.0775H22.1539V12.9237H20.3077V14.7698H18.4616V16.616H16.6154V18.4622H14.7693V20.3083H11.077V18.4622H9.23081V16.616H7.38466V14.7698H5.5385V12.9237H3.69235V11.0775H1.8462V7.38523H5.5385V9.23139H7.38466V11.0775H9.23081V12.9237H11.077V14.7698H14.7693V12.9237H16.6154V11.0775H18.4616V9.23139H20.3077V7.38523H22.1539V5.53908H24V3.69293H25.8462V1.84677H29.5385V5.53908Z" fill="var(--fill-0, #F9E7C9)"/>
<g id="Union_2">
<path d="M14.7692 24H11.0769V22.1538H14.7692V24Z" fill="var(--fill-0, #476807)"/>
<path d="M11.0769 22.1538H9.23077V20.3077H11.0769V22.1538Z" fill="var(--fill-0, #476807)"/>
<path d="M16.6154 22.1538H14.7692V20.3077H16.6154V22.1538Z" fill="var(--fill-0, #476807)"/>
<path d="M9.23077 20.3077H7.38461V18.4615H9.23077V20.3077Z" fill="var(--fill-0, #476807)"/>
<path d="M18.4615 20.3077H16.6154V18.4615H18.4615V20.3077Z" fill="var(--fill-0, #476807)"/>
<path d="M7.38461 18.4615H5.53846V16.6154H3.69231V14.7692H7.38461V18.4615Z" fill="var(--fill-0, #476807)"/>
<path d="M20.3077 18.4615H18.4615V16.6154H20.3077V18.4615Z" fill="var(--fill-0, #476807)"/>
<path d="M22.1538 16.6154H20.3077V14.7692H22.1538V16.6154Z" fill="var(--fill-0, #476807)"/>
<path d="M3.69231 14.7692H1.84615V12.9231H3.69231V14.7692Z" fill="var(--fill-0, #476807)"/>
<path d="M14.7692 14.7692H11.0769V12.9231H14.7692V14.7692Z" fill="var(--fill-0, #476807)"/>
<path d="M24 14.7692H22.1538V12.9231H24V14.7692Z" fill="var(--fill-0, #476807)"/>
<path d="M1.84615 12.9231H0V7.38462H1.84615V12.9231Z" fill="var(--fill-0, #476807)"/>
<path d="M11.0769 12.9231H9.23077V11.0769H11.0769V12.9231Z" fill="var(--fill-0, #476807)"/>
<path d="M16.6154 12.9231H14.7692V11.0769H16.6154V12.9231Z" fill="var(--fill-0, #476807)"/>
<path d="M25.8461 12.9231H24V11.0769H25.8461V12.9231Z" fill="var(--fill-0, #476807)"/>
<path d="M9.23077 11.0769H7.38461V9.23077H9.23077V11.0769Z" fill="var(--fill-0, #476807)"/>
<path d="M18.4615 11.0769H16.6154V9.23077H18.4615V11.0769Z" fill="var(--fill-0, #476807)"/>
<path d="M27.6923 11.0769H25.8461V9.23077H27.6923V11.0769Z" fill="var(--fill-0, #476807)"/>
<path d="M7.38461 9.23077H5.53846V7.38462H7.38461V9.23077Z" fill="var(--fill-0, #476807)"/>
<path d="M20.3077 9.23077H18.4615V7.38462H20.3077V9.23077Z" fill="var(--fill-0, #476807)"/>
<path d="M29.5385 9.23077H27.6923V7.38462H29.5385V9.23077Z" fill="var(--fill-0, #476807)"/>
<path d="M5.53846 7.38462H1.84615V5.53846H5.53846V7.38462Z" fill="var(--fill-0, #476807)"/>
<path d="M22.1538 7.38462H20.3077V5.53846H22.1538V7.38462Z" fill="var(--fill-0, #476807)"/>
<path d="M31.3846 7.38462H29.5385V1.84615H31.3846V7.38462Z" fill="var(--fill-0, #476807)"/>
<path d="M24 5.53846H22.1538V3.69231H24V5.53846Z" fill="var(--fill-0, #476807)"/>
<path d="M25.8461 3.69231H24V1.84615H25.8461V3.69231Z" fill="var(--fill-0, #476807)"/>
<path d="M29.5385 1.84615H25.8461V0H29.5385V1.84615Z" fill="var(--fill-0, #476807)"/>
</g>
<g id="Union_3">
<path d="M14.7693 22.1537H11.077V20.3075H14.7693V22.1537Z" fill="var(--fill-0, #476807)"/>
<path d="M11.077 20.3075H9.23081V18.4614H11.077V20.3075Z" fill="var(--fill-0, #476807)"/>
<path d="M16.6154 20.3075H14.7693V18.4614H16.6154V20.3075Z" fill="var(--fill-0, #476807)"/>
<path d="M9.23081 18.4614H7.38466V16.6152H9.23081V18.4614Z" fill="var(--fill-0, #476807)"/>
<path d="M18.4616 18.4614H16.6154V16.6152H18.4616V18.4614Z" fill="var(--fill-0, #476807)"/>
<path d="M7.38466 16.6152H5.5385V14.769H7.38466V16.6152Z" fill="var(--fill-0, #476807)"/>
<path d="M20.3077 16.6152H18.4616V14.769H20.3077V16.6152Z" fill="var(--fill-0, #476807)"/>
<path d="M5.5385 14.769H3.69235V12.9229H5.5385V14.769Z" fill="var(--fill-0, #476807)"/>
<path d="M22.1539 14.769H20.3077V12.9229H22.1539V14.769Z" fill="var(--fill-0, #476807)"/>
<path d="M3.69235 12.9229H1.8462V11.0767H3.69235V12.9229Z" fill="var(--fill-0, #476807)"/>
<path d="M24 12.9229H22.1539V11.0767H24V12.9229Z" fill="var(--fill-0, #476807)"/>
<path d="M25.8462 11.0767H24V9.23059H25.8462V11.0767Z" fill="var(--fill-0, #476807)"/>
<path d="M27.6923 9.23059H25.8462V7.38443H27.6923V9.23059Z" fill="var(--fill-0, #476807)"/>
<path d="M29.5385 7.38443H27.6923V5.53828H29.5385V7.38443Z" fill="var(--fill-0, #476807)"/>
</g>
</g>
</svg>
